# This file uses centimeters as units for non-parametric coordinates.

g default
v 0.000000 0.000000 0.000000
v 0.000000 1.592178 0.935349
v -0.661391 1.592178 0.661391
v -0.935348 1.592178 0.000000
v -0.661391 1.592178 -0.661391
v 0.000000 1.592178 -0.935348
v 0.661391 1.592178 -0.661391
v 0.935349 1.592178 0.000000
v 0.661391 1.592178 0.661391
v 0.660264 1.794046 -0.660264
v 0.000000 1.794046 -0.933754
v 0.000000 1.794046 -0.000000
v -0.660264 1.794046 -0.660264
v -0.933754 1.794046 -0.000000
v -0.660264 1.794046 0.660264
v 0.000000 1.794046 0.933754
v 0.660264 1.794046 0.660264
v 0.933755 1.794046 -0.000000
v 0.486583 0.032733 -0.486583
v 0.457594 0.000000 -0.457593
v 0.000000 0.032733 -0.688132
v 0.000000 0.000000 -0.647135
v -0.486583 0.032733 -0.486583
v -0.457593 0.000000 -0.457593
v -0.688132 0.032733 0.000000
v -0.647135 0.000000 0.000000
v -0.486583 0.032733 0.486583
v -0.457593 0.000000 0.457593
v 0.000000 0.032733 0.688132
v 0.000000 0.000000 0.647135
v 0.486583 0.032733 0.486583
v 0.457594 0.000000 0.457594
v 0.688132 0.032733 0.000000
v 0.647135 0.000000 0.000000
v 0.731008 2.000000 -0.731008
v 0.700298 1.970065 -0.700298
v -0.000000 2.000000 -1.033802
v 0.000000 1.970065 -0.990371
v -0.731008 2.000000 -0.731008
v -0.700298 1.970065 -0.700298
v -1.033802 2.000000 -0.000000
v -0.990371 1.970065 -0.000000
v -0.731008 2.000000 0.731008
v -0.700298 1.970065 0.700298
v -0.000000 2.000000 1.033802
v 0.000000 1.970065 0.990371
v 0.731008 2.000000 0.731008
v 0.700298 1.970065 0.700298
v 1.033802 2.000000 -0.000000
v 0.990371 1.970065 -0.000000
v -0.000000 1.624454 1.098559
v -0.000000 1.592178 1.057139
v -0.747510 1.592178 0.747510
v -0.776798 1.624454 0.776798
v -0.000000 2.000000 1.126080
v -0.000000 1.961733 1.161015
v -0.820962 1.961733 0.820962
v -0.796259 2.000000 0.796259
v -1.057139 1.592178 -0.000000
v -1.098559 1.624454 -0.000000
v -1.161015 1.961733 -0.000000
v -1.126080 2.000000 -0.000000
v -0.747510 1.592178 -0.747510
v -0.776798 1.624454 -0.776798
v -0.820962 1.961733 -0.820962
v -0.796259 2.000000 -0.796259
v -0.000000 1.592178 -1.057139
v -0.000000 1.624454 -1.098559
v -0.000000 1.961733 -1.161015
v -0.000000 2.000000 -1.126080
v 0.747510 1.592178 -0.747510
v 0.776798 1.624454 -0.776798
v 0.820962 1.961733 -0.820962
v 0.796259 2.000000 -0.796259
v 1.057140 1.592178 -0.000000
v 1.098559 1.624454 -0.000000
v 1.161016 1.961733 -0.000000
v 1.126081 2.000000 -0.000000
v 0.747511 1.592178 0.747511
v 0.776798 1.624454 0.776798
v 0.820962 1.961733 0.820962
v 0.796259 2.000000 0.796259
vt 0.085477 0.737025
vt 0.062754 0.746438
vt 0.940702 0.261502
vt 0.040031 0.737025
vt 0.030619 0.714302
vt 0.040031 0.691579
vt 0.062754 0.682167
vt 0.085477 0.691579
vt 0.094890 0.714302
vt 0.079500 0.612704
vt 0.078502 0.611707
vt 0.062754 0.618230
vt 0.062754 0.619641
vt 0.086437 0.595958
vt 0.085026 0.595958
vt 0.047006 0.611707
vt 0.046008 0.612704
vt 0.040483 0.595958
vt 0.039072 0.595958
vt 0.047006 0.580210
vt 0.046008 0.579212
vt 0.062754 0.573687
vt 0.062754 0.572276
vt 0.078502 0.580210
vt 0.079500 0.579212
vt 0.087912 0.739460
vt 0.086855 0.738403
vt 0.096838 0.714302
vt 0.098333 0.714302
vt 0.062754 0.749881
vt 0.062754 0.748386
vt 0.037596 0.739460
vt 0.038653 0.738403
vt 0.027176 0.714302
vt 0.028670 0.714302
vt 0.037596 0.689144
vt 0.038653 0.690201
vt 0.062754 0.678724
vt 0.062754 0.680218
vt 0.087912 0.689144
vt 0.086855 0.690201
vt 0.062754 0.676495
vt 0.062754 0.677920
vt 0.088480 0.688576
vt 0.089488 0.687568
vt 0.036020 0.687568
vt 0.037028 0.688576
vt 0.024947 0.714302
vt 0.026372 0.714302
vt 0.062754 0.675548
vt 0.062754 0.674346
vt 0.091008 0.686049
vt 0.090158 0.686899
vt 0.035351 0.686899
vt 0.034500 0.686049
vt 0.024000 0.714302
vt 0.022797 0.714302
vt 0.036020 0.741036
vt 0.037028 0.740028
vt 0.035351 0.741706
vt 0.034500 0.742556
vt 0.062754 0.752110
vt 0.062754 0.750684
vt 0.062754 0.753057
vt 0.062754 0.754259
vt 0.089488 0.741036
vt 0.088480 0.740028
vt 0.090158 0.741706
vt 0.091008 0.742556
vt 0.100561 0.714302
vt 0.099136 0.714302
vt 0.101509 0.714302
vt 0.102711 0.714302
vt 0.062754 0.746493
vt 0.085516 0.737064
vt 0.039992 0.737064
vt 0.030564 0.714302
vt 0.039992 0.691540
vt 0.062754 0.682112
vt 0.085516 0.691540
vt 0.094944 0.714302
vt 0.062754 0.595958
vt 0.981095 0.261502
vt 0.969264 0.290064
vt 0.969264 0.232941
vt 0.940702 0.221110
vt 0.912141 0.232941
vt 0.900310 0.261502
vt 0.912141 0.290064
vt 0.940702 0.301895
vt 0.085516 0.573196
vt 0.062754 0.563768
vt 0.094944 0.595958
vt 0.085516 0.618720
vt 0.062754 0.628149
vt 0.039992 0.618720
vt 0.030564 0.595958
vt 0.039992 0.573196
vn 0.000000 1.000000 0.000000
vn 0.000000 1.000000 0.000000
vn 0.000000 1.000000 -0.000000
vn 0.000000 1.000000 0.000000
vn 0.000000 1.000000 -0.000000
vn 0.000000 1.000000 -0.000000
vn 0.000000 1.000000 0.000000
vn 0.000000 1.000000 0.000000
vn 0.000000 1.000000 0.000000
vn 0.441195 -0.781469 -0.441195
vn 0.441195 -0.781469 -0.441195
vn -0.000000 -0.781469 -0.623944
vn 0.000000 -0.781469 -0.623944
vn 0.623944 -0.781469 0.000000
vn 0.623944 -0.781469 0.000000
vn -0.441195 -0.781469 -0.441195
vn -0.441195 -0.781469 -0.441195
vn -0.623944 -0.781469 0.000000
vn -0.623944 -0.781470 0.000000
vn -0.441195 -0.781469 0.441195
vn -0.441195 -0.781469 0.441195
vn -0.000000 -0.781469 0.623944
vn -0.000000 -0.781469 0.623944
vn 0.441195 -0.781469 0.441195
vn 0.441195 -0.781469 0.441195
vn -0.401293 0.823364 0.401293
vn -0.401293 0.823364 0.401293
vn -0.567514 0.823364 0.000000
vn -0.567514 0.823364 0.000000
vn -0.000000 0.823364 0.567514
vn -0.000000 0.823364 0.567514
vn 0.401293 0.823364 0.401293
vn 0.401293 0.823364 0.401293
vn 0.567514 0.823364 0.000000
vn 0.567514 0.823364 0.000000
vn 0.401293 0.823364 -0.401293
vn 0.401293 0.823364 -0.401293
vn 0.000000 0.823364 -0.567514
vn 0.000000 0.823364 -0.567514
vn -0.401293 0.823364 -0.401293
vn -0.401293 0.823364 -0.401293
vn -0.000000 -0.788793 0.614659
vn -0.000000 -0.788793 0.614659
vn 0.434631 -0.788792 0.434630
vn 0.434631 -0.788792 0.434630
vn -0.434631 -0.788792 0.434630
vn -0.434631 -0.788792 0.434630
vn -0.614661 -0.788791 0.000000
vn -0.614661 -0.788791 0.000000
vn 0.292526 0.644736 0.706219
vn 0.292526 0.644736 0.706219
vn 0.292526 0.644736 0.706219
vn 0.292526 0.644736 0.706219
vn -0.292526 0.644736 0.706218
vn -0.292526 0.644736 0.706218
vn -0.292526 0.644736 0.706218
vn -0.292526 0.644736 0.706218
vn -0.706219 0.644735 0.292526
vn -0.706219 0.644735 0.292526
vn -0.706219 0.644735 0.292526
vn -0.706219 0.644735 0.292526
vn -0.434631 -0.788792 -0.434630
vn -0.434631 -0.788792 -0.434630
vn -0.706219 0.644735 -0.292526
vn -0.706219 0.644735 -0.292526
vn -0.706219 0.644735 -0.292526
vn -0.706219 0.644735 -0.292526
vn -0.000000 -0.788792 -0.614660
vn -0.000000 -0.788792 -0.614660
vn -0.292526 0.644736 -0.706218
vn -0.292526 0.644736 -0.706218
vn -0.292526 0.644736 -0.706218
vn -0.292526 0.644736 -0.706218
vn 0.434631 -0.788792 -0.434630
vn 0.434631 -0.788792 -0.434630
vn 0.292526 0.644736 -0.706219
vn 0.292526 0.644736 -0.706219
vn 0.292526 0.644736 -0.706219
vn 0.292526 0.644736 -0.706219
vn 0.614661 -0.788792 -0.000000
vn 0.614661 -0.788792 -0.000000
vn 0.706219 0.644735 -0.292527
vn 0.706219 0.644735 -0.292527
vn 0.706219 0.644735 -0.292527
vn 0.706219 0.644735 -0.292527
vn 0.706219 0.644735 0.292526
vn 0.706219 0.644735 0.292526
vn 0.706219 0.644735 0.292526
vn 0.706219 0.644735 0.292526
vn 0.378644 -0.144915 -0.914127
vn 0.378644 -0.144915 -0.914127
vn 0.378644 -0.144915 -0.914127
vn 0.378644 -0.144915 -0.914127
vn -0.378644 -0.144915 -0.914127
vn -0.378644 -0.144915 -0.914127
vn -0.378644 -0.144915 -0.914127
vn -0.378644 -0.144915 -0.914127
vn -0.914127 -0.144915 -0.378644
vn -0.914127 -0.144915 -0.378644
vn -0.914127 -0.144915 -0.378644
vn -0.914127 -0.144915 -0.378644
vn -0.914127 -0.144915 0.378644
vn -0.914127 -0.144915 0.378644
vn -0.914127 -0.144915 0.378644
vn -0.914127 -0.144915 0.378644
vn -0.378644 -0.144915 0.914127
vn -0.378644 -0.144915 0.914127
vn -0.378644 -0.144915 0.914127
vn -0.378644 -0.144915 0.914127
vn 0.378644 -0.144915 0.914127
vn 0.378644 -0.144915 0.914127
vn 0.378644 -0.144915 0.914127
vn 0.378644 -0.144915 0.914127
vn 0.914127 -0.144915 0.378644
vn 0.914127 -0.144915 0.378644
vn 0.914127 -0.144915 0.378644
vn 0.914127 -0.144915 0.378644
vn 0.914127 -0.144915 -0.378644
vn 0.914127 -0.144915 -0.378644
vn 0.914127 -0.144915 -0.378644
vn 0.914127 -0.144915 -0.378644
vn 0.000000 -1.000000 0.000000
vn 0.000000 -1.000000 0.000000
vn 0.000000 -1.000000 0.000000
vn 0.000000 -1.000000 0.000000
vn 0.000000 -1.000000 0.000000
vn 0.000000 -1.000000 0.000000
vn 0.000000 -1.000000 0.000000
vn 0.000000 -1.000000 0.000000
vn 0.000000 -1.000000 0.000000
vn -0.377203 -0.168632 0.910649
vn -0.377203 -0.168632 0.910649
vn -0.377203 -0.168632 0.910649
vn -0.377203 -0.168632 0.910649
vn -0.910649 -0.168632 0.377203
vn -0.910649 -0.168632 0.377203
vn -0.910649 -0.168632 0.377203
vn -0.910649 -0.168632 0.377203
vn -0.910649 -0.168632 -0.377203
vn -0.910649 -0.168632 -0.377203
vn -0.910649 -0.168632 -0.377203
vn -0.910649 -0.168632 -0.377203
vn -0.377203 -0.168632 -0.910649
vn -0.377203 -0.168632 -0.910649
vn -0.377203 -0.168632 -0.910649
vn -0.377203 -0.168632 -0.910649
vn 0.377203 -0.168632 -0.910649
vn 0.377203 -0.168632 -0.910649
vn 0.377203 -0.168632 -0.910649
vn 0.377203 -0.168632 -0.910649
vn 0.910649 -0.168632 -0.377203
vn 0.910649 -0.168632 -0.377203
vn 0.910649 -0.168632 -0.377203
vn 0.910649 -0.168632 -0.377203
vn 0.910649 -0.168632 0.377203
vn 0.910649 -0.168632 0.377203
vn 0.910649 -0.168632 0.377203
vn 0.910649 -0.168632 0.377203
vn 0.377203 -0.168632 0.910649
vn 0.377203 -0.168632 0.910649
vn 0.377203 -0.168632 0.910649
vn 0.377203 -0.168632 0.910649
vn 0.000000 -1.000000 0.000001
vn 0.000000 -1.000000 0.000001
vn 0.000000 -1.000000 0.000001
vn 0.000000 -1.000000 0.000001
vn 0.000000 1.000000 -0.000000
vn 0.000000 1.000000 -0.000000
vn 0.000000 1.000000 -0.000000
vn 0.000000 1.000000 -0.000000
vn 0.000000 -1.000000 0.000000
vn 0.000000 -1.000000 0.000000
vn 0.000000 1.000000 0.000000
vn 0.000000 1.000000 0.000000
vn 0.000000 -1.000000 -0.000001
vn 0.000000 -1.000000 -0.000001
vn 0.000000 1.000000 0.000000
vn 0.000000 1.000000 0.000000
vn 0.000000 -1.000000 -0.000001
vn 0.000000 -1.000000 -0.000001
vn 0.000000 1.000000 -0.000000
vn 0.000000 1.000000 -0.000000
vn 0.000000 -1.000000 -0.000001
vn 0.000000 -1.000000 -0.000001
vn 0.000000 1.000000 -0.000000
vn 0.000000 1.000000 -0.000000
vn 0.000000 -1.000000 0.000000
vn 0.000000 -1.000000 0.000000
vn 0.000000 1.000000 0.000000
vn 0.000000 1.000000 0.000000
vn 0.000000 -1.000000 0.000001
vn 0.000000 -1.000000 0.000001
vn 0.000000 1.000000 0.000000
vn 0.000000 1.000000 0.000000
vn -0.366829 0.284857 0.885603
vn -0.366829 0.284857 0.885603
vn -0.366829 0.284857 0.885603
vn -0.366829 0.284857 0.885603
vn 0.366829 0.284857 0.885603
vn 0.366829 0.284857 0.885603
vn 0.366829 0.284857 0.885603
vn 0.366829 0.284857 0.885603
vn 0.885603 0.284857 0.366829
vn 0.885603 0.284857 0.366829
vn 0.885603 0.284857 0.366829
vn 0.885603 0.284857 0.366829
vn 0.885603 0.284857 -0.366829
vn 0.885603 0.284857 -0.366829
vn 0.885603 0.284857 -0.366829
vn 0.885603 0.284857 -0.366829
vn 0.366829 0.284857 -0.885603
vn 0.366829 0.284857 -0.885603
vn 0.366829 0.284857 -0.885603
vn 0.366829 0.284857 -0.885603
vn -0.366829 0.284857 -0.885603
vn -0.366829 0.284857 -0.885603
vn -0.366829 0.284857 -0.885603
vn -0.366829 0.284857 -0.885603
vn -0.885603 0.284857 -0.366829
vn -0.885603 0.284857 -0.366829
vn -0.885603 0.284857 -0.366829
vn -0.885603 0.284857 -0.366829
vn -0.885603 0.284856 0.366829
vn -0.885603 0.284856 0.366829
vn -0.885603 0.284856 0.366829
vn -0.885603 0.284856 0.366829
s 1
g FlowerPot
f 10/84/1 11/90/2 12/3/3
f 11/90/2 13/89/4 12/3/3
f 13/89/4 14/88/5 12/3/3
f 14/88/5 15/87/6 12/3/3
f 15/87/6 16/86/7 12/3/3
f 16/86/7 17/85/8 12/3/3
f 17/85/8 18/83/9 12/3/3
f 18/83/9 10/84/1 12/3/3
s 2
f 19/10/10 20/11/11 22/12/12 21/13/13
f 20/11/11 19/10/10 33/14/14 34/15/15
f 21/13/13 22/12/12 24/16/16 23/17/17
f 23/17/17 24/16/16 26/18/18 25/19/19
f 25/19/19 26/18/18 28/20/20 27/21/21
f 27/21/21 28/20/20 30/22/22 29/23/23
f 29/23/23 30/22/22 32/24/24 31/25/25
f 31/25/25 32/24/24 34/15/15 33/14/14
s 3
f 35/26/26 36/27/27 50/28/28 49/29/29
f 36/27/27 35/26/26 37/30/30 38/31/31
f 38/31/31 37/30/30 39/32/32 40/33/33
f 40/33/33 39/32/32 41/34/34 42/35/35
f 42/35/35 41/34/34 43/36/36 44/37/37
f 44/37/37 43/36/36 45/38/38 46/39/39
f 46/39/39 45/38/38 47/40/40 48/41/41
f 48/41/41 47/40/40 49/29/29 50/28/28
s 4
f 51/42/42 52/43/43 79/44/44 80/45/45
f 52/43/43 51/42/42 54/46/46 53/47/47
f 53/47/47 54/46/46 60/48/48 59/49/49
s off
f 55/50/50 56/51/51 81/52/52 82/53/53
f 56/51/54 55/50/55 58/54/56 57/55/57
f 57/55/58 58/54/59 62/56/60 61/57/61
s 4
f 59/49/49 60/48/48 64/58/62 63/59/63
s off
f 61/57/64 62/56/65 66/60/66 65/61/67
s 4
f 63/59/63 64/58/62 68/62/68 67/63/69
s off
f 65/61/70 66/60/71 70/64/72 69/65/73
s 4
f 67/63/69 68/62/68 72/66/74 71/67/75
s off
f 69/65/76 70/64/77 74/68/78 73/69/79
s 4
f 71/67/75 72/66/74 76/70/80 75/71/81
s off
f 73/69/82 74/68/83 78/72/84 77/73/85
s 4
f 75/71/81 76/70/80 80/45/45 79/44/44
s off
f 77/73/86 78/72/87 82/53/88 81/52/89
f 19/10/90 21/13/91 6/95/92 7/94/93
f 21/13/94 23/17/95 5/96/96 6/95/97
f 23/17/98 25/19/99 4/97/100 5/96/101
f 25/19/102 27/21/103 3/98/104 4/97/105
f 27/21/106 29/23/107 2/92/108 3/98/109
f 29/23/110 31/25/111 9/91/112 2/92/113
f 31/25/114 33/14/115 8/93/116 9/91/117
f 33/14/118 19/10/119 7/94/120 8/93/121
s 5
f 22/12/122 20/11/123 1/82/124
f 24/16/125 22/12/122 1/82/124
f 26/18/126 24/16/125 1/82/124
f 28/20/127 26/18/126 1/82/124
f 30/22/128 28/20/127 1/82/124
f 32/24/129 30/22/128 1/82/124
f 34/15/130 32/24/129 1/82/124
f 20/11/123 34/15/130 1/82/124
s off
f 54/46/131 51/42/132 56/51/133 57/55/134
f 60/48/135 54/46/136 57/55/137 61/57/138
f 64/58/139 60/48/140 61/57/141 65/61/142
f 68/62/143 64/58/144 65/61/145 69/65/146
f 72/66/147 68/62/148 69/65/149 73/69/150
f 76/70/151 72/66/152 73/69/153 77/73/154
f 80/45/155 76/70/156 77/73/157 81/52/158
f 51/42/159 80/45/160 81/52/161 56/51/162
s 6
f 3/78/163 2/79/164 52/43/165 53/47/166
s 7
f 45/38/167 43/36/168 58/54/169 55/50/170
s 6
f 4/77/171 3/78/163 53/47/166 59/49/172
s 7
f 43/36/168 41/34/173 62/56/174 58/54/169
s 6
f 5/76/175 4/77/171 59/49/172 63/59/176
s 7
f 41/34/173 39/32/177 66/60/178 62/56/174
s 6
f 6/74/179 5/76/175 63/59/176 67/63/180
s 7
f 39/32/177 37/30/181 70/64/182 66/60/178
s 6
f 7/75/183 6/74/179 67/63/180 71/67/184
s 7
f 37/30/181 35/26/185 74/68/186 70/64/182
s 6
f 8/81/187 7/75/183 71/67/184 75/71/188
s 7
f 35/26/185 49/29/189 78/72/190 74/68/186
s 6
f 9/80/191 8/81/187 75/71/188 79/44/192
s 7
f 49/29/189 47/40/193 82/53/194 78/72/190
s 6
f 2/79/164 9/80/191 79/44/192 52/43/165
s 7
f 47/40/193 45/38/167 55/50/170 82/53/194
s off
f 36/27/195 38/31/196 11/2/197 10/1/198
f 38/31/199 40/33/200 13/4/201 11/2/202
f 40/33/203 42/35/204 14/5/205 13/4/206
f 42/35/207 44/37/208 15/6/209 14/5/210
f 44/37/211 46/39/212 16/7/213 15/6/214
f 46/39/215 48/41/216 17/8/217 16/7/218
f 48/41/219 50/28/220 18/9/221 17/8/222
f 50/28/223 36/27/224 10/1/225 18/9/226
