# This file uses centimeters as units for non-parametric coordinates.

g default
v 0.000000 0.000000 0.000000
v 0.000000 1.304353 1.347740
v -0.952996 1.304353 0.952996
v -1.347740 1.304353 0.000000
v -0.952996 1.304353 -0.952996
v 0.000000 1.304353 -1.347740
v 0.952996 1.304353 -0.952996
v 1.347740 1.304353 0.000000
v 0.952996 1.304353 0.952996
v 0.951372 1.469728 -0.951372
v 0.000000 1.469728 -1.345443
v 0.000000 1.469728 -0.000000
v -0.951372 1.469728 -0.951372
v -1.345443 1.469728 -0.000000
v -0.951372 1.469728 0.951372
v 0.000000 1.469728 1.345443
v 0.951372 1.469728 0.951372
v 1.345443 1.469728 -0.000000
v 0.701115 0.026816 -0.701115
v 0.659345 0.000000 -0.659344
v 0.000000 0.026816 -0.991526
v 0.000000 0.000000 -0.932454
v -0.701115 0.026816 -0.701115
v -0.659344 0.000000 -0.659344
v -0.991526 0.026816 0.000000
v -0.932454 0.000000 0.000000
v -0.701115 0.026816 0.701115
v -0.659344 0.000000 0.659344
v 0.000000 0.026816 0.991526
v 0.000000 0.000000 0.932454
v 0.701115 0.026816 0.701115
v 0.659345 0.000000 0.659345
v 0.991526 0.026816 0.000000
v 0.932454 0.000000 0.000000
v 1.053306 1.638451 -1.053306
v 1.009057 1.613927 -1.009057
v -0.000000 1.638451 -1.489600
v 0.000000 1.613927 -1.427022
v -1.053306 1.638451 -1.053306
v -1.009057 1.613927 -1.009057
v -1.489600 1.638451 -0.000000
v -1.427022 1.613927 -0.000000
v -1.053306 1.638451 1.053306
v -1.009057 1.613927 1.009057
v -0.000000 1.638451 1.489600
v 0.000000 1.613927 1.427022
v 1.053306 1.638451 1.053306
v 1.009057 1.613927 1.009057
v 1.489600 1.638451 -0.000000
v 1.427022 1.613927 -0.000000
v -0.000000 1.330794 1.582909
v -0.000000 1.304353 1.523228
v -1.077085 1.304353 1.077085
v -1.119286 1.330794 1.119286
v -0.000000 1.638451 1.622564
v -0.000000 1.607102 1.672902
v -1.182920 1.607102 1.182920
v -1.147326 1.638451 1.147326
v -1.523228 1.304353 -0.000000
v -1.582909 1.330794 -0.000000
v -1.672902 1.607102 -0.000000
v -1.622564 1.638451 -0.000000
v -1.077085 1.304353 -1.077085
v -1.119286 1.330794 -1.119286
v -1.182920 1.607102 -1.182920
v -1.147326 1.638451 -1.147326
v -0.000000 1.304353 -1.523228
v -0.000000 1.330794 -1.582909
v -0.000000 1.607102 -1.672902
v -0.000000 1.638451 -1.622564
v 1.077085 1.304353 -1.077085
v 1.119286 1.330794 -1.119286
v 1.182920 1.607102 -1.182920
v 1.147326 1.638451 -1.147326
v 1.523228 1.304353 -0.000000
v 1.582909 1.330794 -0.000000
v 1.672902 1.607102 -0.000000
v 1.622565 1.638451 -0.000000
v 1.077085 1.304353 1.077085
v 1.119286 1.330794 1.119286
v 1.182920 1.607102 1.182921
v 1.147326 1.638451 1.147326
vt 0.583768 0.508123
vt 0.561044 0.517536
vt 0.940702 0.261502
vt 0.538321 0.508123
vt 0.528909 0.485400
vt 0.538321 0.462677
vt 0.561044 0.453265
vt 0.583768 0.462677
vt 0.593180 0.485400
vt 0.577790 0.390031
vt 0.576793 0.389033
vt 0.561044 0.395556
vt 0.561044 0.396967
vt 0.584727 0.373285
vt 0.583316 0.373285
vt 0.545296 0.389033
vt 0.544298 0.390031
vt 0.538773 0.373285
vt 0.537362 0.373285
vt 0.545296 0.357537
vt 0.544298 0.356539
vt 0.561044 0.351013
vt 0.561044 0.349603
vt 0.576793 0.357537
vt 0.577790 0.356539
vt 0.586202 0.510558
vt 0.585145 0.509501
vt 0.595128 0.485400
vt 0.596623 0.485400
vt 0.561044 0.520979
vt 0.561044 0.519484
vt 0.535886 0.510558
vt 0.536943 0.509501
vt 0.525466 0.485400
vt 0.526960 0.485400
vt 0.535886 0.460242
vt 0.536943 0.461299
vt 0.561044 0.449822
vt 0.561044 0.451316
vt 0.586202 0.460242
vt 0.585145 0.461299
vt 0.561044 0.447593
vt 0.561044 0.449018
vt 0.586770 0.459674
vt 0.587778 0.458666
vt 0.534311 0.458666
vt 0.535318 0.459674
vt 0.523237 0.485400
vt 0.524662 0.485400
vt 0.561044 0.446646
vt 0.561044 0.445443
vt 0.589298 0.457147
vt 0.588448 0.457997
vt 0.533641 0.457997
vt 0.532791 0.457147
vt 0.522290 0.485400
vt 0.521088 0.485400
vt 0.534311 0.512134
vt 0.535318 0.511126
vt 0.533641 0.512804
vt 0.532791 0.513654
vt 0.561044 0.523208
vt 0.561044 0.521782
vt 0.561044 0.524155
vt 0.561044 0.525357
vt 0.587778 0.512134
vt 0.586770 0.511126
vt 0.588448 0.512804
vt 0.589298 0.513654
vt 0.598852 0.485400
vt 0.597426 0.485400
vt 0.599799 0.485400
vt 0.601001 0.485400
vt 0.561044 0.517591
vt 0.583806 0.508162
vt 0.538282 0.508162
vt 0.528854 0.485400
vt 0.538282 0.462638
vt 0.561044 0.453210
vt 0.583806 0.462638
vt 0.593235 0.485400
vt 0.561044 0.373285
vt 0.981095 0.261502
vt 0.969264 0.290064
vt 0.969264 0.232941
vt 0.940702 0.221110
vt 0.912141 0.232941
vt 0.900310 0.261502
vt 0.912141 0.290064
vt 0.940702 0.301895
vt 0.583806 0.350523
vt 0.561044 0.341095
vt 0.593235 0.373285
vt 0.583806 0.396047
vt 0.561044 0.405475
vt 0.538282 0.396047
vt 0.528854 0.373285
vt 0.538282 0.350523
vn 0.000000 1.000000 0.000000
vn 0.000000 1.000000 0.000000
vn 0.000000 1.000000 -0.000000
vn 0.000000 1.000000 0.000000
vn 0.000000 1.000000 -0.000000
vn 0.000000 1.000000 -0.000000
vn 0.000000 1.000000 0.000000
vn 0.000000 1.000000 0.000000
vn 0.000000 1.000000 0.000000
vn 0.292283 -0.910572 -0.292283
vn 0.292283 -0.910572 -0.292283
vn -0.000000 -0.910572 -0.413351
vn 0.000000 -0.910572 -0.413351
vn 0.413351 -0.910572 0.000000
vn 0.413351 -0.910572 0.000000
vn -0.292283 -0.910572 -0.292283
vn -0.292283 -0.910572 -0.292283
vn -0.413350 -0.910572 0.000000
vn -0.413350 -0.910572 0.000000
vn -0.292283 -0.910572 0.292283
vn -0.292283 -0.910572 0.292283
vn -0.000000 -0.910572 0.413351
vn -0.000000 -0.910572 0.413351
vn 0.292283 -0.910572 0.292283
vn 0.292283 -0.910572 0.292283
vn -0.257999 0.931060 0.257999
vn -0.257999 0.931060 0.257999
vn -0.364866 0.931060 0.000000
vn -0.364866 0.931060 0.000000
vn -0.000000 0.931060 0.364866
vn -0.000000 0.931060 0.364866
vn 0.257999 0.931060 0.257999
vn 0.257999 0.931060 0.257999
vn 0.364866 0.931060 0.000000
vn 0.364866 0.931060 0.000000
vn 0.257999 0.931060 -0.257999
vn 0.257999 0.931060 -0.257999
vn 0.000000 0.931060 -0.364866
vn 0.000000 0.931060 -0.364866
vn -0.257999 0.931060 -0.257999
vn -0.257999 0.931060 -0.257999
vn -0.000000 -0.914288 0.405065
vn -0.000000 -0.914288 0.405065
vn 0.286425 -0.914287 0.286425
vn 0.286425 -0.914287 0.286425
vn -0.286426 -0.914287 0.286425
vn -0.286426 -0.914287 0.286425
vn -0.405067 -0.914287 0.000000
vn -0.405067 -0.914287 0.000000
vn 0.213901 0.829201 0.516402
vn 0.213901 0.829201 0.516402
vn 0.213901 0.829201 0.516402
vn 0.213901 0.829201 0.516402
vn -0.213901 0.829201 0.516402
vn -0.213901 0.829201 0.516402
vn -0.213901 0.829201 0.516402
vn -0.213901 0.829201 0.516402
vn -0.516404 0.829201 0.213902
vn -0.516404 0.829201 0.213902
vn -0.516403 0.829201 0.213902
vn -0.516403 0.829201 0.213902
vn -0.286426 -0.914287 -0.286425
vn -0.286426 -0.914287 -0.286425
vn -0.516404 0.829201 -0.213902
vn -0.516403 0.829201 -0.213902
vn -0.516404 0.829201 -0.213902
vn -0.516404 0.829201 -0.213902
vn -0.000000 -0.914287 -0.405066
vn -0.000000 -0.914287 -0.405066
vn -0.213901 0.829201 -0.516402
vn -0.213901 0.829201 -0.516402
vn -0.213901 0.829201 -0.516402
vn -0.213901 0.829201 -0.516402
vn 0.286426 -0.914287 -0.286425
vn 0.286426 -0.914287 -0.286425
vn 0.213901 0.829201 -0.516402
vn 0.213901 0.829201 -0.516402
vn 0.213901 0.829201 -0.516402
vn 0.213901 0.829201 -0.516402
vn 0.405067 -0.914287 -0.000000
vn 0.405067 -0.914287 -0.000000
vn 0.516403 0.829201 -0.213902
vn 0.516403 0.829201 -0.213902
vn 0.516403 0.829201 -0.213902
vn 0.516403 0.829201 -0.213902
vn 0.516403 0.829201 0.213901
vn 0.516403 0.829201 0.213901
vn 0.516403 0.829201 0.213901
vn 0.516403 0.829201 0.213901
vn 0.370585 -0.249460 -0.894671
vn 0.370585 -0.249460 -0.894671
vn 0.370585 -0.249460 -0.894671
vn 0.370585 -0.249460 -0.894671
vn -0.370585 -0.249460 -0.894671
vn -0.370585 -0.249460 -0.894671
vn -0.370585 -0.249460 -0.894671
vn -0.370585 -0.249460 -0.894671
vn -0.894671 -0.249460 -0.370585
vn -0.894671 -0.249460 -0.370585
vn -0.894671 -0.249460 -0.370585
vn -0.894671 -0.249460 -0.370585
vn -0.894671 -0.249460 0.370585
vn -0.894671 -0.249460 0.370585
vn -0.894671 -0.249460 0.370585
vn -0.894671 -0.249460 0.370585
vn -0.370585 -0.249460 0.894671
vn -0.370585 -0.249460 0.894671
vn -0.370585 -0.249460 0.894671
vn -0.370585 -0.249460 0.894671
vn 0.370585 -0.249460 0.894671
vn 0.370585 -0.249460 0.894671
vn 0.370585 -0.249460 0.894671
vn 0.370585 -0.249460 0.894671
vn 0.894671 -0.249460 0.370585
vn 0.894671 -0.249460 0.370585
vn 0.894671 -0.249460 0.370585
vn 0.894671 -0.249460 0.370585
vn 0.894671 -0.249460 -0.370585
vn 0.894671 -0.249460 -0.370585
vn 0.894671 -0.249460 -0.370585
vn 0.894671 -0.249460 -0.370585
vn 0.000000 -1.000000 0.000000
vn 0.000000 -1.000000 0.000000
vn 0.000000 -1.000000 0.000000
vn 0.000000 -1.000000 0.000000
vn 0.000000 -1.000000 0.000000
vn 0.000000 -1.000000 0.000000
vn 0.000000 -1.000000 0.000000
vn 0.000000 -1.000000 0.000000
vn 0.000000 -1.000000 0.000000
vn -0.366453 -0.288145 0.884695
vn -0.366453 -0.288145 0.884695
vn -0.366453 -0.288145 0.884695
vn -0.366453 -0.288145 0.884695
vn -0.884695 -0.288145 0.366453
vn -0.884695 -0.288145 0.366453
vn -0.884695 -0.288145 0.366453
vn -0.884695 -0.288145 0.366453
vn -0.884695 -0.288145 -0.366453
vn -0.884695 -0.288145 -0.366453
vn -0.884695 -0.288145 -0.366453
vn -0.884695 -0.288145 -0.366453
vn -0.366452 -0.288145 -0.884695
vn -0.366452 -0.288145 -0.884695
vn -0.366452 -0.288145 -0.884695
vn -0.366452 -0.288145 -0.884695
vn 0.366453 -0.288145 -0.884695
vn 0.366453 -0.288145 -0.884695
vn 0.366453 -0.288145 -0.884695
vn 0.366453 -0.288145 -0.884695
vn 0.884695 -0.288145 -0.366453
vn 0.884695 -0.288145 -0.366453
vn 0.884695 -0.288145 -0.366453
vn 0.884695 -0.288145 -0.366453
vn 0.884695 -0.288145 0.366453
vn 0.884695 -0.288145 0.366453
vn 0.884695 -0.288145 0.366453
vn 0.884695 -0.288145 0.366453
vn 0.366453 -0.288145 0.884695
vn 0.366453 -0.288145 0.884695
vn 0.366453 -0.288145 0.884695
vn 0.366453 -0.288145 0.884695
vn 0.000000 -1.000000 0.000000
vn 0.000000 -1.000000 0.000001
vn 0.000000 -1.000000 0.000001
vn 0.000000 -1.000000 0.000000
vn 0.000000 1.000000 -0.000000
vn 0.000000 1.000000 -0.000000
vn 0.000000 1.000000 -0.000000
vn 0.000000 1.000000 -0.000000
vn 0.000000 -1.000000 0.000000
vn 0.000000 -1.000000 0.000000
vn 0.000000 1.000000 0.000000
vn 0.000000 1.000000 0.000000
vn 0.000000 -1.000000 -0.000000
vn 0.000000 -1.000000 -0.000000
vn 0.000000 1.000000 0.000000
vn 0.000000 1.000000 0.000000
vn 0.000000 -1.000000 -0.000001
vn 0.000000 -1.000000 -0.000001
vn 0.000000 1.000000 -0.000000
vn 0.000000 1.000000 -0.000000
vn 0.000000 -1.000000 -0.000000
vn 0.000000 -1.000000 -0.000000
vn 0.000000 1.000000 -0.000000
vn 0.000000 1.000000 -0.000000
vn 0.000000 -1.000000 0.000000
vn 0.000000 -1.000000 0.000000
vn 0.000000 1.000000 0.000000
vn 0.000000 1.000000 0.000000
vn 0.000000 -1.000000 0.000000
vn 0.000000 -1.000000 0.000000
vn 0.000000 1.000000 0.000000
vn 0.000000 1.000000 0.000000
vn -0.339151 0.463218 0.818783
vn -0.339151 0.463218 0.818783
vn -0.339151 0.463218 0.818783
vn -0.339151 0.463218 0.818783
vn 0.339151 0.463218 0.818783
vn 0.339151 0.463218 0.818783
vn 0.339151 0.463218 0.818783
vn 0.339151 0.463218 0.818783
vn 0.818783 0.463218 0.339151
vn 0.818783 0.463218 0.339151
vn 0.818783 0.463218 0.339151
vn 0.818783 0.463218 0.339151
vn 0.818783 0.463218 -0.339151
vn 0.818783 0.463218 -0.339151
vn 0.818783 0.463218 -0.339151
vn 0.818783 0.463218 -0.339151
vn 0.339151 0.463218 -0.818783
vn 0.339151 0.463218 -0.818783
vn 0.339151 0.463218 -0.818783
vn 0.339151 0.463218 -0.818783
vn -0.339151 0.463218 -0.818783
vn -0.339151 0.463218 -0.818783
vn -0.339151 0.463218 -0.818783
vn -0.339151 0.463218 -0.818783
vn -0.818783 0.463218 -0.339151
vn -0.818783 0.463218 -0.339151
vn -0.818783 0.463218 -0.339151
vn -0.818783 0.463218 -0.339151
vn -0.818783 0.463217 0.339151
vn -0.818783 0.463217 0.339151
vn -0.818783 0.463217 0.339151
vn -0.818783 0.463217 0.339151
s 1
g FlowerPot1
f 10/84/1 11/90/2 12/3/3
f 11/90/2 13/89/4 12/3/3
f 13/89/4 14/88/5 12/3/3
f 14/88/5 15/87/6 12/3/3
f 15/87/6 16/86/7 12/3/3
f 16/86/7 17/85/8 12/3/3
f 17/85/8 18/83/9 12/3/3
f 18/83/9 10/84/1 12/3/3
s 2
f 19/10/10 20/11/11 22/12/12 21/13/13
f 20/11/11 19/10/10 33/14/14 34/15/15
f 21/13/13 22/12/12 24/16/16 23/17/17
f 23/17/17 24/16/16 26/18/18 25/19/19
f 25/19/19 26/18/18 28/20/20 27/21/21
f 27/21/21 28/20/20 30/22/22 29/23/23
f 29/23/23 30/22/22 32/24/24 31/25/25
f 31/25/25 32/24/24 34/15/15 33/14/14
s 3
f 35/26/26 36/27/27 50/28/28 49/29/29
f 36/27/27 35/26/26 37/30/30 38/31/31
f 38/31/31 37/30/30 39/32/32 40/33/33
f 40/33/33 39/32/32 41/34/34 42/35/35
f 42/35/35 41/34/34 43/36/36 44/37/37
f 44/37/37 43/36/36 45/38/38 46/39/39
f 46/39/39 45/38/38 47/40/40 48/41/41
f 48/41/41 47/40/40 49/29/29 50/28/28
s 4
f 51/42/42 52/43/43 79/44/44 80/45/45
f 52/43/43 51/42/42 54/46/46 53/47/47
f 53/47/47 54/46/46 60/48/48 59/49/49
s off
f 55/50/50 56/51/51 81/52/52 82/53/53
f 56/51/54 55/50/55 58/54/56 57/55/57
f 57/55/58 58/54/59 62/56/60 61/57/61
s 4
f 59/49/49 60/48/48 64/58/62 63/59/63
s off
f 61/57/64 62/56/65 66/60/66 65/61/67
s 4
f 63/59/63 64/58/62 68/62/68 67/63/69
s off
f 65/61/70 66/60/71 70/64/72 69/65/73
s 4
f 67/63/69 68/62/68 72/66/74 71/67/75
s off
f 69/65/76 70/64/77 74/68/78 73/69/79
s 4
f 71/67/75 72/66/74 76/70/80 75/71/81
s off
f 73/69/82 74/68/83 78/72/84 77/73/85
s 4
f 75/71/81 76/70/80 80/45/45 79/44/44
s off
f 77/73/86 78/72/87 82/53/88 81/52/89
f 19/10/90 21/13/91 6/95/92 7/94/93
f 21/13/94 23/17/95 5/96/96 6/95/97
f 23/17/98 25/19/99 4/97/100 5/96/101
f 25/19/102 27/21/103 3/98/104 4/97/105
f 27/21/106 29/23/107 2/92/108 3/98/109
f 29/23/110 31/25/111 9/91/112 2/92/113
f 31/25/114 33/14/115 8/93/116 9/91/117
f 33/14/118 19/10/119 7/94/120 8/93/121
s 5
f 22/12/122 20/11/123 1/82/124
f 24/16/125 22/12/122 1/82/124
f 26/18/126 24/16/125 1/82/124
f 28/20/127 26/18/126 1/82/124
f 30/22/128 28/20/127 1/82/124
f 32/24/129 30/22/128 1/82/124
f 34/15/130 32/24/129 1/82/124
f 20/11/123 34/15/130 1/82/124
s off
f 54/46/131 51/42/132 56/51/133 57/55/134
f 60/48/135 54/46/136 57/55/137 61/57/138
f 64/58/139 60/48/140 61/57/141 65/61/142
f 68/62/143 64/58/144 65/61/145 69/65/146
f 72/66/147 68/62/148 69/65/149 73/69/150
f 76/70/151 72/66/152 73/69/153 77/73/154
f 80/45/155 76/70/156 77/73/157 81/52/158
f 51/42/159 80/45/160 81/52/161 56/51/162
s 6
f 3/78/163 2/79/164 52/43/165 53/47/166
s 7
f 45/38/167 43/36/168 58/54/169 55/50/170
s 6
f 4/77/171 3/78/163 53/47/166 59/49/172
s 7
f 43/36/168 41/34/173 62/56/174 58/54/169
s 6
f 5/76/175 4/77/171 59/49/172 63/59/176
s 7
f 41/34/173 39/32/177 66/60/178 62/56/174
s 6
f 6/74/179 5/76/175 63/59/176 67/63/180
s 7
f 39/32/177 37/30/181 70/64/182 66/60/178
s 6
f 7/75/183 6/74/179 67/63/180 71/67/184
s 7
f 37/30/181 35/26/185 74/68/186 70/64/182
s 6
f 8/81/187 7/75/183 71/67/184 75/71/188
s 7
f 35/26/185 49/29/189 78/72/190 74/68/186
s 6
f 9/80/191 8/81/187 75/71/188 79/44/192
s 7
f 49/29/189 47/40/193 82/53/194 78/72/190
s 6
f 2/79/164 9/80/191 79/44/192 52/43/165
s 7
f 47/40/193 45/38/167 55/50/170 82/53/194
s off
f 36/27/195 38/31/196 11/2/197 10/1/198
f 38/31/199 40/33/200 13/4/201 11/2/202
f 40/33/203 42/35/204 14/5/205 13/4/206
f 42/35/207 44/37/208 15/6/209 14/5/210
f 44/37/211 46/39/212 16/7/213 15/6/214
f 46/39/215 48/41/216 17/8/217 16/7/218
f 48/41/219 50/28/220 18/9/221 17/8/222
f 50/28/223 36/27/224 10/1/225 18/9/226
