# This file uses centimeters as units for non-parametric coordinates.

g default
v 0.127396 0.000000 -0.061194
v 0.087813 0.000000 -0.127739
v 0.019652 0.000000 -0.161403
v -0.055057 0.000000 -0.149401
v -0.110653 0.000000 -0.096427
v -0.131702 0.000000 -0.021261
v -0.118602 0.000000 0.054950
v -0.082464 0.000000 0.116654
v -0.035763 0.000000 0.154143
v 0.013764 0.000000 0.161794
v 0.062381 0.000000 0.138395
v 0.104878 0.000000 0.087528
v 0.130830 0.000000 0.016844
v 0.142725 0.925747 -0.190229
v 0.098358 0.925747 -0.258939
v 0.021764 0.925747 -0.294199
v -0.062311 0.925747 -0.281501
v -0.124665 0.925747 -0.226233
v -0.148122 0.925747 -0.149468
v -0.133424 0.925747 -0.073711
v -0.092996 0.925747 -0.013910
v -0.040600 0.925747 0.021790
v 0.015136 0.925747 0.028977
v 0.069770 0.925747 0.006698
v 0.117436 0.925747 -0.042198
v 0.146394 0.925747 -0.111607
v 0.334190 1.851494 -0.187227
v 0.237459 1.851494 -0.319369
v 0.050226 1.851494 -0.398926
v -0.158978 1.851494 -0.367571
v -0.304228 1.851494 -0.248088
v -0.347611 1.851494 -0.119692
v -0.305284 1.851494 -0.037195
v -0.211479 1.851494 -0.002991
v -0.094080 1.851494 0.005788
v 0.030307 1.851494 0.005570
v 0.152521 1.851494 0.000199
v 0.260731 1.851494 -0.020825
v 0.332098 1.851494 -0.078465
v 0.415072 2.777241 -0.036751
v 0.291731 2.777241 -0.181690
v 0.061192 2.777241 -0.277588
v -0.196236 2.777241 -0.237934
v -0.375699 2.777241 -0.097166
v -0.438314 2.777241 0.030840
v -0.406434 2.777241 0.071894
v -0.304500 2.777241 0.033763
v -0.145461 2.777241 -0.024488
v 0.045526 2.777241 -0.042275
v 0.225871 2.777241 -0.003726
v 0.359160 2.777241 0.049468
v 0.428051 2.777241 0.051367
v 0.452673 3.702988 0.151496
v 0.317378 3.702988 -0.006048
v 0.066507 3.702988 -0.113970
v -0.213972 3.702988 -0.068429
v -0.408486 3.702988 0.088733
v -0.480756 3.702988 0.222288
v -0.458763 3.702988 0.244796
v -0.358660 3.702988 0.164865
v -0.177838 3.702988 0.062510
v 0.055299 3.702988 0.032354
v 0.270772 3.702988 0.101121
v 0.413780 3.702988 0.200408
v 0.475437 3.702988 0.233542
v 0.430270 4.628736 0.266012
v 0.299673 4.628736 0.123259
v 0.062658 4.628736 0.026391
v -0.201291 4.628736 0.067131
v -0.387184 4.628736 0.208848
v -0.458378 4.628736 0.331051
v -0.437403 4.628736 0.355016
v -0.339940 4.628736 0.287485
v -0.167270 4.628736 0.198944
v 0.052127 4.628736 0.172793
v 0.255690 4.628736 0.232131
v 0.393315 4.628736 0.317196
v 0.453568 4.628736 0.343034
v 0.389690 5.554482 0.315928
v 0.268064 5.554482 0.196432
v 0.055853 5.554482 0.117339
v -0.178680 5.554482 0.150303
v -0.348182 5.554482 0.266907
v -0.417031 5.554482 0.371659
v -0.397937 5.554482 0.397946
v -0.305662 5.554482 0.349615
v -0.148428 5.554482 0.283531
v 0.046520 5.554482 0.263867
v 0.228764 5.554482 0.308044
v 0.356243 5.554482 0.370722
v 0.413162 5.554482 0.384803
v 0.312984 6.480229 0.252177
v 0.211504 6.480229 0.169544
v 0.044063 6.480229 0.117115
v -0.139009 6.480229 0.138594
v -0.276450 6.480229 0.216943
v -0.337041 6.480229 0.292583
v -0.322598 6.480229 0.320330
v -0.244757 6.480229 0.299625
v -0.116829 6.480229 0.264778
v 0.037252 6.480229 0.253990
v 0.182513 6.480229 0.277359
v 0.287893 6.480229 0.308272
v 0.335464 6.480229 0.306429
v 0.182663 7.318578 0.103808
v 0.121245 7.315525 0.064472
v 0.025956 7.311241 0.042154
v -0.077161 7.306719 0.051719
v -0.158045 7.302991 0.087413
v -0.197167 7.300895 0.127948
v -0.189979 7.300895 0.154339
v -0.142518 7.302991 0.162170
v -0.066486 7.306719 0.159778
v 0.022694 7.311241 0.157673
v 0.107226 7.315525 0.158698
v 0.170323 7.318578 0.155695
v 0.198377 7.319683 0.138220
v 0.145624 7.564883 0.059592
v 0.096290 7.563791 0.029373
v 0.021019 7.562251 0.012679
v -0.060194 7.560616 0.019355
v -0.124624 7.559258 0.045729
v -0.156477 7.558492 0.077581
v -0.151386 7.558492 0.101479
v -0.113654 7.559258 0.112838
v -0.052682 7.560616 0.115405
v 0.018729 7.562251 0.115021
v 0.086430 7.563791 0.113299
v 0.136921 7.564883 0.106221
v 0.158893 7.565276 0.088285
v 0.103588 7.819747 0.016651
v 0.068234 7.820384 -0.003069
v 0.015503 7.821237 -0.013739
v -0.041142 7.822088 -0.009989
v -0.086744 7.822751 0.006317
v -0.110168 7.823108 0.027447
v -0.107485 7.823108 0.045432
v -0.080976 7.822751 0.056465
v -0.037205 7.822088 0.061206
v 0.014304 7.821237 0.061924
v 0.063065 7.820384 0.059269
v 0.099015 7.819747 0.051549
v 0.113997 7.819512 0.036884
v 0.059858 7.947449 -0.002834
v 0.039510 7.947948 -0.012776
v 0.009903 7.948895 -0.017979
v -0.021715 7.949772 -0.016301
v -0.047496 7.949444 -0.008296
v -0.061318 7.949769 0.002678
v -0.060431 7.949769 0.013226
v -0.045590 7.949444 0.020991
v -0.020415 7.949772 0.025088
v 0.009507 7.948895 0.025975
v 0.037797 7.947948 0.023585
v 0.058339 7.947449 0.017639
v 0.066434 7.947166 0.008345
v 0.023681 7.974042 -0.003362
v 0.016138 7.974042 -0.006554
v 0.005391 7.974042 -0.008114
v -0.006041 7.974042 -0.007569
v -0.015461 7.974042 -0.005086
v -0.020680 7.974042 -0.001396
v -0.020560 7.974042 0.002516
v -0.015202 7.974042 0.005758
v -0.005864 7.974042 0.007726
v 0.005337 7.974042 0.008127
v 0.015905 7.974042 0.006907
v 0.023474 7.974042 0.004237
v 0.026298 7.974042 0.000560
vt 0.364740 0.588373
vt 0.364754 0.591844
vt 0.374484 0.590878
vt 0.374468 0.586988
vt 0.364780 0.597820
vt 0.374512 0.597594
vt 0.364807 0.604371
vt 0.374544 0.604966
vt 0.364828 0.609246
vt 0.374567 0.610433
vt 0.364836 0.611092
vt 0.374575 0.612490
vt 0.364831 0.609943
vt 0.374570 0.611201
vt 0.364817 0.606774
vt 0.374555 0.607656
vt 0.364800 0.602679
vt 0.374536 0.603062
vt 0.364782 0.598337
vt 0.374515 0.598175
vt 0.364764 0.594074
vt 0.374495 0.593385
vt 0.364748 0.590348
vt 0.374477 0.589205
vt 0.364738 0.588072
vt 0.374466 0.586666
vt 0.384166 0.578640
vt 0.384130 0.570158
vt 0.384235 0.595057
vt 0.384313 0.613401
vt 0.384367 0.626137
vt 0.384383 0.629941
vt 0.384367 0.626229
vt 0.384333 0.618004
vt 0.384289 0.607710
vt 0.384243 0.596804
vt 0.384198 0.586088
vt 0.384157 0.576599
vt 0.384131 0.570342
vt 0.393880 0.573840
vt 0.393834 0.563025
vt 0.393965 0.594054
vt 0.394061 0.616627
vt 0.394127 0.632362
vt 0.394150 0.637853
vt 0.394139 0.635057
vt 0.394101 0.626119
vt 0.394042 0.612175
vt 0.393971 0.595428
vt 0.393904 0.579615
vt 0.393855 0.567928
vt 0.393829 0.561887
vt 0.403604 0.571550
vt 0.403553 0.559687
vt 0.403697 0.593547
vt 0.403801 0.618141
vt 0.403873 0.635196
vt 0.403900 0.641533
vt 0.403892 0.639605
vt 0.403854 0.630827
vt 0.403787 0.614972
vt 0.403701 0.594530
vt 0.403621 0.575637
vt 0.403568 0.563097
vt 0.403545 0.557691
vt 0.413344 0.573061
vt 0.413295 0.561610
vt 0.413432 0.593844
vt 0.413530 0.616987
vt 0.413599 0.633287
vt 0.413625 0.639530
vt 0.413617 0.637691
vt 0.413581 0.629145
vt 0.413517 0.614004
vt 0.413436 0.594767
vt 0.413360 0.576918
vt 0.413309 0.564850
vt 0.413287 0.559567
vt 0.423089 0.575792
vt 0.423044 0.565127
vt 0.423168 0.594399
vt 0.423255 0.614964
vt 0.423318 0.629826
vt 0.423344 0.635863
vt 0.423336 0.634189
vt 0.423302 0.626098
vt 0.423244 0.612311
vt 0.423172 0.595217
vt 0.423104 0.579238
vt 0.423057 0.568060
vt 0.423036 0.563069
vt 0.432844 0.580710
vt 0.432806 0.571812
vt 0.432906 0.595392
vt 0.432974 0.611444
vt 0.433025 0.623495
vt 0.433047 0.628808
vt 0.433042 0.627542
vt 0.433013 0.620716
vt 0.432966 0.609499
vt 0.432909 0.595989
vt 0.432855 0.583252
vt 0.432816 0.574012
vt 0.432798 0.569841
vt 0.441660 0.588587
vt 0.441669 0.583201
vt 0.441650 0.596942
vt 0.441641 0.605984
vt 0.441632 0.613077
vt 0.441624 0.616507
vt 0.441622 0.615877
vt 0.441626 0.611715
vt 0.441637 0.605048
vt 0.441652 0.597228
vt 0.441665 0.589816
vt 0.441674 0.584283
vt 0.441675 0.581824
vt 0.444280 0.590764
vt 0.444273 0.586438
vt 0.444291 0.597364
vt 0.444304 0.604485
vt 0.444314 0.610135
vt 0.444318 0.612928
vt 0.444316 0.612481
vt 0.444310 0.609173
vt 0.444302 0.603827
vt 0.444292 0.597565
vt 0.444283 0.591629
vt 0.444276 0.587201
vt 0.444272 0.585275
vt 0.446988 0.593213
vt 0.446968 0.590113
vt 0.447017 0.597836
vt 0.447047 0.602803
vt 0.447070 0.606802
vt 0.447083 0.608855
vt 0.447082 0.608620
vt 0.447068 0.606296
vt 0.447045 0.602458
vt 0.447017 0.597941
vt 0.446990 0.593666
vt 0.446970 0.590514
vt 0.446962 0.589200
vt 0.448340 0.595726
vt 0.448327 0.593941
vt 0.448361 0.598322
vt 0.448382 0.601094
vt 0.448388 0.603354
vt 0.448396 0.604566
vt 0.448396 0.604489
vt 0.448387 0.603187
vt 0.448381 0.600980
vt 0.448361 0.598356
vt 0.448340 0.595876
vt 0.448328 0.594075
vt 0.448322 0.593365
vt 0.448623 0.597774
vt 0.448620 0.597112
vt 0.448627 0.598716
vt 0.448631 0.599719
vt 0.448635 0.600545
vt 0.448637 0.601002
vt 0.448637 0.600991
vt 0.448635 0.600522
vt 0.448631 0.599703
vt 0.448627 0.598721
vt 0.448623 0.597794
vt 0.448620 0.597130
vt 0.448619 0.596883
vt 0.432374 0.674151
vt 0.434179 0.674151
vt 0.428890 0.685285
vt 0.424702 0.685285
vt 0.436518 0.674151
vt 0.439006 0.674151
vt 0.439684 0.685285
vt 0.434131 0.685285
vt 0.424737 0.696419
vt 0.420187 0.696419
vt 0.440363 0.696419
vt 0.431837 0.696419
vt 0.422320 0.707553
vt 0.417851 0.707553
vt 0.440799 0.707553
vt 0.430392 0.707553
vt 0.423155 0.718687
vt 0.418804 0.718687
vt 0.440658 0.718687
vt 0.430863 0.718687
vt 0.424685 0.729821
vt 0.420566 0.729821
vt 0.440407 0.729821
vt 0.431705 0.729821
vt 0.427404 0.740954
vt 0.423929 0.740954
vt 0.439994 0.740954
vt 0.433115 0.740954
vt 0.431968 0.750850
vt 0.429850 0.750825
vt 0.439344 0.750949
vt 0.435363 0.750894
vt 0.433257 0.753932
vt 0.431572 0.753923
vt 0.439167 0.753968
vt 0.435979 0.753948
vt 0.434716 0.757101
vt 0.433532 0.757105
vt 0.438969 0.757083
vt 0.436670 0.757093
vt 0.436295 0.758624
vt 0.435633 0.758628
vt 0.438755 0.758618
vt 0.437419 0.758628
vt 0.437652 0.758920
vt 0.437413 0.758920
vt 0.438569 0.758920
vt 0.438069 0.758920
vt 0.442708 0.675784
vt 0.440139 0.675784
vt 0.448193 0.686094
vt 0.453794 0.686094
vt 0.435705 0.675784
vt 0.430837 0.675784
vt 0.425240 0.686094
vt 0.437353 0.686094
vt 0.451336 0.696404
vt 0.458477 0.696404
vt 0.423083 0.696404
vt 0.437988 0.696404
vt 0.452820 0.706714
vt 0.460654 0.706714
vt 0.422056 0.706714
vt 0.438295 0.706714
vt 0.451795 0.717024
vt 0.459357 0.717024
vt 0.422790 0.717024
vt 0.438072 0.717024
vt 0.449965 0.727334
vt 0.457007 0.727334
vt 0.424099 0.727334
vt 0.437678 0.727334
vt 0.446690 0.737644
vt 0.452566 0.737644
vt 0.426396 0.737644
vt 0.436996 0.737644
vt 0.441465 0.746947
vt 0.445021 0.746981
vt 0.429977 0.746849
vt 0.435947 0.746899
vt 0.440020 0.749712
vt 0.442876 0.749724
vt 0.430959 0.749676
vt 0.435662 0.749694
vt 0.438395 0.752569
vt 0.440442 0.752562
vt 0.432063 0.752588
vt 0.435342 0.752579
vt 0.436732 0.753990
vt 0.437910 0.753984
vt 0.433187 0.754010
vt 0.435018 0.754000
vt 0.435379 0.754281
vt 0.435816 0.754281
vt 0.434095 0.754281
vt 0.434757 0.754281
vn 0.959125 -0.053908 -0.277802
vn 0.673089 -0.111557 -0.731100
vn 0.618181 -0.131917 -0.774888
vn 0.931965 -0.133817 -0.336948
vn 0.146107 -0.141605 -0.979082
vn 0.128442 -0.125023 -0.983805
vn -0.438246 -0.130955 -0.889265
vn -0.399783 -0.128418 -0.907570
vn -0.854961 -0.084497 -0.511763
vn -0.808756 -0.137014 -0.571962
vn -0.999159 -0.021578 -0.034855
vn -0.990633 -0.125977 -0.052695
vn -0.927635 0.037696 0.371580
vn -0.871000 -0.070271 0.486231
vn -0.730566 0.087241 0.677246
vn -0.570967 0.001871 0.820971
vn -0.383406 0.127746 0.914703
vn -0.245729 0.050786 0.968007
vn 0.140985 0.139080 0.980194
vn 0.091663 0.061744 0.993874
vn 0.587497 0.108852 0.801872
vn 0.420759 0.031611 0.906622
vn 0.846272 0.063222 0.528986
vn 0.736504 -0.030640 0.675739
vn 0.984129 0.009060 0.177225
vn 0.969304 -0.100260 0.224493
vn 0.586652 -0.003173 -0.809833
vn 0.908820 -0.079410 -0.409560
vn 0.118700 0.033519 -0.992364
vn -0.386436 0.019746 -0.922105
vn -0.779007 -0.039545 -0.625767
vn -0.988480 -0.131199 -0.075464
vn -0.621221 -0.151835 0.768786
vn -0.109034 -0.043391 0.993091
vn 0.014255 0.017691 0.999742
vn 0.006638 0.029524 0.999542
vn 0.039272 -0.004392 0.999219
vn 0.322626 -0.092111 0.942034
vn 0.921453 -0.162331 0.352949
vn 0.567252 0.113107 -0.815740
vn 0.873972 0.034933 -0.484719
vn 0.114748 0.151789 -0.981730
vn -0.382503 0.136844 -0.913764
vn -0.751427 0.076319 -0.655387
vn -0.985700 -0.031211 -0.165596
vn -0.110646 -0.148880 0.982646
vn 0.309218 -0.067723 0.948577
vn 0.196929 -0.038063 0.979679
vn -0.050972 -0.033219 0.998147
vn -0.255433 -0.048857 0.965592
vn -0.205131 -0.098785 0.973737
vn 0.864968 -0.130548 0.484548
vn 0.559767 0.131255 -0.818189
vn 0.839360 0.079493 -0.537732
vn 0.114413 0.160912 -0.980315
vn -0.384868 0.148565 -0.910936
vn -0.733352 0.104812 -0.671722
vn -0.962199 0.033531 -0.270277
vn 0.293226 -0.137283 0.946135
vn 0.489139 -0.111139 0.865096
vn 0.277720 -0.114841 0.953773
vn -0.077023 -0.117894 0.990035
vn -0.383528 -0.113127 0.916574
vn -0.464872 -0.119201 0.877317
vn 0.806564 -0.095838 0.583326
vn 0.543942 0.106243 -0.832370
vn 0.817329 0.080769 -0.570482
vn 0.110921 0.123060 -0.986181
vn -0.374180 0.115617 -0.920121
vn -0.713912 0.091809 -0.694190
vn -0.945442 0.059941 -0.320230
vn 0.330360 -0.093096 0.939253
vn 0.492702 -0.102030 0.864196
vn 0.277213 -0.117539 0.953592
vn -0.077228 -0.122844 0.989417
vn -0.384528 -0.111459 0.916360
vn -0.477914 -0.098336 0.872885
vn 0.809201 -0.024202 0.587033
vn 0.512991 0.048805 -0.857006
vn 0.794393 0.050439 -0.605306
vn 0.103268 0.050714 -0.993360
vn -0.348695 0.049576 -0.935924
vn -0.682184 0.048072 -0.729599
vn -0.937251 0.057041 -0.343958
vn 0.185674 -0.003997 0.982603
vn 0.412311 -0.031749 0.910490
vn 0.235453 -0.042249 0.970967
vn -0.064529 -0.044866 0.996907
vn -0.323680 -0.038607 0.945379
vn -0.376165 -0.024023 0.926241
vn 0.846926 0.055541 0.528802
vn 0.461751 -0.022543 -0.886723
vn 0.756750 0.015658 -0.653517
vn 0.090740 -0.037255 -0.995178
vn -0.306822 -0.031400 -0.951249
vn -0.629998 -0.005573 -0.776577
vn -0.921217 0.063029 -0.383909
vn -0.051396 0.126567 0.990626
vn 0.273988 0.069667 0.959206
vn 0.166191 0.057646 0.984407
vn -0.043711 0.056265 0.997459
vn -0.220660 0.061597 0.973404
vn -0.201329 0.086534 0.975694
vn 0.897881 0.151101 0.413496
vn 0.403134 -0.073374 -0.912195
vn 0.706198 -0.012369 -0.707907
vn 0.080170 -0.095759 -0.992171
vn -0.254682 -0.087687 -0.963041
vn -0.560859 -0.047886 -0.826525
vn -0.890830 0.062120 -0.450070
vn -0.317204 0.226335 0.920953
vn 0.109313 0.150824 0.982498
vn 0.086366 0.131877 0.987497
vn -0.022962 0.129381 0.991329
vn -0.104015 0.138263 0.984918
vn 0.007159 0.176037 0.984358
vn 0.946137 0.199245 0.255198
vn 0.350276 -0.089127 -0.932396
vn 0.679589 -0.020065 -0.733319
vn 0.065150 -0.110410 -0.991749
vn -0.217178 -0.103309 -0.970650
vn -0.512220 -0.063320 -0.856517
vn -0.894669 0.062865 -0.442285
vn -0.602437 0.247421 0.758850
vn -0.126002 0.209134 0.969735
vn -0.014999 0.188940 0.981874
vn 0.008599 0.185745 0.982560
vn 0.058312 0.196666 0.978735
vn 0.293676 0.229679 0.927902
vn 0.964979 0.194076 0.176495
vn 0.327865 -0.063186 -0.942609
vn 0.654856 0.012205 -0.755655
vn 0.060650 -0.085598 -0.994482
vn -0.199967 -0.078071 -0.976687
vn -0.484235 -0.034580 -0.874254
vn -0.873016 0.102745 -0.476746
vn -0.661817 0.289265 0.691610
vn -0.184506 0.248092 0.951004
vn -0.041566 0.225141 0.973439
vn 0.018131 0.221282 0.975041
vn 0.102085 0.233047 0.967092
vn 0.361591 0.268940 0.892706
vn 0.965907 0.232460 0.113957
vn 0.294830 0.035805 -0.954879
vn 0.603260 0.144939 -0.784264
vn 0.055990 0.003247 -0.998426
vn -0.172848 0.016753 -0.984806
vn -0.433459 0.081918 -0.897443
vn -0.808506 0.276123 -0.519687
vn -0.652551 0.453071 0.607374
vn -0.220751 0.357961 0.907267
vn -0.062892 0.317099 0.946305
vn 0.027242 0.308264 0.950911
vn 0.136822 0.327663 0.934835
vn 0.393583 0.392782 0.831153
vn 0.910904 0.409469 0.050878
vn 0.131882 0.839837 -0.526574
vn 0.241613 0.894298 -0.376634
vn 0.031006 0.818947 -0.573031
vn -0.066985 0.831645 -0.551253
vn -0.171820 0.876719 -0.449268
vn -0.277986 0.934572 -0.222036
vn -0.228712 0.948360 0.219780
vn -0.104673 0.911045 0.398800
vn -0.033924 0.883310 0.467561
vn 0.020215 0.874986 0.483727
vn 0.077948 0.887710 0.453756
vn 0.172117 0.921850 0.347228
vn 0.323134 0.946329 0.006791
s 1
g GrassTall_02
f 1/1/1 2/2/2 15/3/3 14/4/4
f 2/2/2 3/5/5 16/6/6 15/3/3
f 3/5/5 4/7/7 17/8/8 16/6/6
f 4/7/7 5/9/9 18/10/10 17/8/8
f 5/9/9 6/11/11 19/12/12 18/10/10
f 6/11/11 7/13/13 20/14/14 19/12/12
f 7/13/13 8/15/15 21/16/16 20/14/14
f 8/15/15 9/17/17 22/18/18 21/16/16
f 9/17/17 10/19/19 23/20/20 22/18/18
f 10/19/19 11/21/21 24/22/22 23/20/20
f 11/21/21 12/23/23 25/24/24 24/22/22
f 12/23/23 13/25/25 26/26/26 25/24/24
f 13/25/25 1/1/1 14/4/4 26/26/26
f 14/218/4 15/219/3 28/220/27 27/221/28
f 15/3/3 16/6/6 29/29/29 28/27/27
f 16/222/6 17/223/8 30/224/30 29/225/29
f 17/8/8 18/10/10 31/31/31 30/30/30
f 18/10/10 19/12/12 32/32/32 31/31/31
f 19/12/12 20/14/14 33/33/33 32/32/32
f 20/170/14 21/171/16 34/172/34 33/173/33
f 21/16/16 22/18/18 35/35/35 34/34/34
f 22/174/18 23/175/20 36/176/36 35/177/35
f 23/20/20 24/22/22 37/37/37 36/36/36
f 24/22/22 25/24/24 38/38/38 37/37/37
f 25/24/24 26/26/26 39/39/39 38/38/38
f 26/26/26 14/4/4 27/28/28 39/39/39
f 27/221/28 28/220/27 41/226/40 40/227/41
f 28/27/27 29/29/29 42/42/42 41/40/40
f 29/225/29 30/224/30 43/228/43 42/229/42
f 30/30/30 31/31/31 44/44/44 43/43/43
f 31/31/31 32/32/32 45/45/45 44/44/44
f 32/32/32 33/33/33 46/46/46 45/45/45
f 33/173/33 34/172/34 47/178/47 46/179/46
f 34/34/34 35/35/35 48/48/48 47/47/47
f 35/177/35 36/176/36 49/180/49 48/181/48
f 36/36/36 37/37/37 50/50/50 49/49/49
f 37/37/37 38/38/38 51/51/51 50/50/50
f 38/38/38 39/39/39 52/52/52 51/51/51
f 39/39/39 27/28/28 40/41/41 52/52/52
f 40/227/41 41/226/40 54/230/53 53/231/54
f 41/40/40 42/42/42 55/55/55 54/53/53
f 42/229/42 43/228/43 56/232/56 55/233/55
f 43/43/43 44/44/44 57/57/57 56/56/56
f 44/44/44 45/45/45 58/58/58 57/57/57
f 45/45/45 46/46/46 59/59/59 58/58/58
f 46/179/46 47/178/47 60/182/60 59/183/59
f 47/47/47 48/48/48 61/61/61 60/60/60
f 48/181/48 49/180/49 62/184/62 61/185/61
f 49/49/49 50/50/50 63/63/63 62/62/62
f 50/50/50 51/51/51 64/64/64 63/63/63
f 51/51/51 52/52/52 65/65/65 64/64/64
f 52/52/52 40/41/41 53/54/54 65/65/65
f 53/231/54 54/230/53 67/234/66 66/235/67
f 54/53/53 55/55/55 68/68/68 67/66/66
f 55/233/55 56/232/56 69/236/69 68/237/68
f 56/56/56 57/57/57 70/70/70 69/69/69
f 57/57/57 58/58/58 71/71/71 70/70/70
f 58/58/58 59/59/59 72/72/72 71/71/71
f 59/183/59 60/182/60 73/186/73 72/187/72
f 60/60/60 61/61/61 74/74/74 73/73/73
f 61/185/61 62/184/62 75/188/75 74/189/74
f 62/62/62 63/63/63 76/76/76 75/75/75
f 63/63/63 64/64/64 77/77/77 76/76/76
f 64/64/64 65/65/65 78/78/78 77/77/77
f 65/65/65 53/54/54 66/67/67 78/78/78
f 66/235/67 67/234/66 80/238/79 79/239/80
f 67/66/66 68/68/68 81/81/81 80/79/79
f 68/237/68 69/236/69 82/240/82 81/241/81
f 69/69/69 70/70/70 83/83/83 82/82/82
f 70/70/70 71/71/71 84/84/84 83/83/83
f 71/71/71 72/72/72 85/85/85 84/84/84
f 72/187/72 73/186/73 86/190/86 85/191/85
f 73/73/73 74/74/74 87/87/87 86/86/86
f 74/189/74 75/188/75 88/192/88 87/193/87
f 75/75/75 76/76/76 89/89/89 88/88/88
f 76/76/76 77/77/77 90/90/90 89/89/89
f 77/77/77 78/78/78 91/91/91 90/90/90
f 78/78/78 66/67/67 79/80/80 91/91/91
f 79/239/80 80/238/79 93/242/92 92/243/93
f 80/79/79 81/81/81 94/94/94 93/92/92
f 81/241/81 82/240/82 95/244/95 94/245/94
f 82/82/82 83/83/83 96/96/96 95/95/95
f 83/83/83 84/84/84 97/97/97 96/96/96
f 84/84/84 85/85/85 98/98/98 97/97/97
f 85/191/85 86/190/86 99/194/99 98/195/98
f 86/86/86 87/87/87 100/100/100 99/99/99
f 87/193/87 88/192/88 101/196/101 100/197/100
f 88/88/88 89/89/89 102/102/102 101/101/101
f 89/89/89 90/90/90 103/103/103 102/102/102
f 90/90/90 91/91/91 104/104/104 103/103/103
f 91/91/91 79/80/80 92/93/93 104/104/104
f 92/243/93 93/242/92 106/246/105 105/247/106
f 93/92/92 94/94/94 107/107/107 106/105/105
f 94/245/94 95/244/95 108/248/108 107/249/107
f 95/95/95 96/96/96 109/109/109 108/108/108
f 96/96/96 97/97/97 110/110/110 109/109/109
f 97/97/97 98/98/98 111/111/111 110/110/110
f 98/195/98 99/194/99 112/198/112 111/199/111
f 99/99/99 100/100/100 113/113/113 112/112/112
f 100/197/100 101/196/101 114/200/114 113/201/113
f 101/101/101 102/102/102 115/115/115 114/114/114
f 102/102/102 103/103/103 116/116/116 115/115/115
f 103/103/103 104/104/104 117/117/117 116/116/116
f 104/104/104 92/93/93 105/106/106 117/117/117
f 105/247/106 106/246/105 119/250/118 118/251/119
f 106/105/105 107/107/107 120/120/120 119/118/118
f 107/249/107 108/248/108 121/252/121 120/253/120
f 108/108/108 109/109/109 122/122/122 121/121/121
f 109/109/109 110/110/110 123/123/123 122/122/122
f 110/110/110 111/111/111 124/124/124 123/123/123
f 111/199/111 112/198/112 125/202/125 124/203/124
f 112/112/112 113/113/113 126/126/126 125/125/125
f 113/201/113 114/200/114 127/204/127 126/205/126
f 114/114/114 115/115/115 128/128/128 127/127/127
f 115/115/115 116/116/116 129/129/129 128/128/128
f 116/116/116 117/117/117 130/130/130 129/129/129
f 117/117/117 105/106/106 118/119/119 130/130/130
f 118/251/119 119/250/118 132/254/131 131/255/132
f 119/118/118 120/120/120 133/133/133 132/131/131
f 120/253/120 121/252/121 134/256/134 133/257/133
f 121/121/121 122/122/122 135/135/135 134/134/134
f 122/122/122 123/123/123 136/136/136 135/135/135
f 123/123/123 124/124/124 137/137/137 136/136/136
f 124/203/124 125/202/125 138/206/138 137/207/137
f 125/125/125 126/126/126 139/139/139 138/138/138
f 126/205/126 127/204/127 140/208/140 139/209/139
f 127/127/127 128/128/128 141/141/141 140/140/140
f 128/128/128 129/129/129 142/142/142 141/141/141
f 129/129/129 130/130/130 143/143/143 142/142/142
f 130/130/130 118/119/119 131/132/132 143/143/143
f 131/255/132 132/254/131 145/258/144 144/259/145
f 132/131/131 133/133/133 146/146/146 145/144/144
f 133/257/133 134/256/134 147/260/147 146/261/146
f 134/134/134 135/135/135 148/148/148 147/147/147
f 135/135/135 136/136/136 149/149/149 148/148/148
f 136/136/136 137/137/137 150/150/150 149/149/149
f 137/207/137 138/206/138 151/210/151 150/211/150
f 138/138/138 139/139/139 152/152/152 151/151/151
f 139/209/139 140/208/140 153/212/153 152/213/152
f 140/140/140 141/141/141 154/154/154 153/153/153
f 141/141/141 142/142/142 155/155/155 154/154/154
f 142/142/142 143/143/143 156/156/156 155/155/155
f 143/143/143 131/132/132 144/145/145 156/156/156
f 144/259/145 145/258/144 158/262/157 157/263/158
f 145/144/144 146/146/146 159/159/159 158/157/157
f 146/261/146 147/260/147 160/264/160 159/265/159
f 147/147/147 148/148/148 161/161/161 160/160/160
f 148/148/148 149/149/149 162/162/162 161/161/161
f 149/149/149 150/150/150 163/163/163 162/162/162
f 150/211/150 151/210/151 164/214/164 163/215/163
f 151/151/151 152/152/152 165/165/165 164/164/164
f 152/213/152 153/212/153 166/216/166 165/217/165
f 153/153/153 154/154/154 167/167/167 166/166/166
f 154/154/154 155/155/155 168/168/168 167/167/167
f 155/155/155 156/156/156 169/169/169 168/168/168
f 156/156/156 144/145/145 157/158/158 169/169/169
f 158/157/157 159/159/159 160/160/160 161/161/161 162/162/162 163/163/163 164/164/164 165/165/165 166/166/166 167/167/167 168/168/168 169/169/169 157/158/158
