# This file uses centimeters as units for non-parametric coordinates.

mtllib Island.mtl
g default
v -31.466164 1.448185 1.259051
v -33.189793 1.392406 -6.105129
v -38.682510 1.431580 -2.305146
v -37.011951 1.413204 5.168785
v -22.308372 0.000000 5.569237
v -30.413124 -0.000000 -13.568741
v -45.818291 -0.000000 -5.329659
v -41.943455 0.000000 11.574707
v -22.585121 -0.000000 -6.465405
v -32.238533 0.876717 -8.738182
v -31.844219 1.630165 -2.768055
v -27.524330 0.847569 3.106438
v -38.997448 -0.000000 -12.787338
v -41.137955 0.823162 -3.635862
v -36.153366 1.592880 -5.367249
v -46.846626 0.000000 4.482138
v -38.773380 0.827244 6.967213
v -38.765465 1.631775 1.150436
v -32.339939 0.000000 13.701271
v -34.636093 1.508160 4.908588
v -27.778343 0.862228 -4.530302
v -37.411133 0.866447 -8.385670
v -41.543983 0.929523 2.395205
v -33.756584 0.810133 8.641479
v -35.758545 1.919769 -0.494531
vt 0.603738 0.831332
vt 0.613611 0.425026
vt 0.625882 0.443538
vt 0.618131 0.740546
vt 0.611879 0.770205
vt 0.609665 0.973746
vt 0.618278 0.024409
vt 0.605326 0.024409
vt 0.595036 0.024410
vt 0.630089 0.024409
vt 0.617386 0.830537
vt 0.614731 0.712963
vt 0.625382 0.450787
vt 0.599077 0.431467
vt 0.616600 0.457951
vt 0.606415 0.452873
vt 0.603902 0.732334
vt 0.608888 0.812098
vt 0.598278 0.484065
vt 0.603733 0.433487
vt 0.630505 0.024409
vt 0.607195 0.723247
vt 0.593484 0.024410
vt 0.600881 0.024410
vt 0.615371 0.024410
vn 0.487103 0.729905 -0.479552
vn 0.487103 0.729905 -0.479552
vn 0.487103 0.729905 -0.479552
vn 0.487103 0.729905 -0.479552
vn -0.632943 0.647290 -0.424735
vn -0.632943 0.647290 -0.424735
vn -0.632943 0.647290 -0.424735
vn -0.632943 0.647290 -0.424735
vn -0.610998 0.657579 0.440763
vn -0.610998 0.657579 0.440763
vn -0.610998 0.657579 0.440763
vn -0.610998 0.657579 0.440763
vn 0.459179 0.759316 0.461079
vn 0.459179 0.759316 0.461079
vn 0.459179 0.759316 0.461079
vn 0.459179 0.759316 0.461079
vn -0.520507 0.821637 -0.232350
vn -0.520507 0.821637 -0.232350
vn -0.520507 0.821637 -0.232350
vn -0.520507 0.821637 -0.232350
vn 0.638053 0.769473 0.028269
vn 0.638053 0.769473 0.028269
vn 0.638053 0.769473 0.028269
vn 0.638053 0.769473 0.028269
vn 0.868840 0.494608 -0.021902
vn 0.868840 0.494608 -0.021902
vn 0.868840 0.494608 -0.021902
vn 0.868840 0.494608 -0.021902
vn 0.622194 0.402690 -0.671353
vn 0.622194 0.402690 -0.671353
vn 0.622194 0.402690 -0.671353
vn 0.622194 0.402690 -0.671353
vn -0.020299 0.683801 -0.729386
vn -0.020299 0.683801 -0.729386
vn -0.020299 0.683801 -0.729386
vn -0.020299 0.683801 -0.729386
vn -0.077407 0.335118 -0.938991
vn -0.077407 0.335118 -0.938991
vn -0.077407 0.335118 -0.938991
vn -0.077407 0.335118 -0.938991
vn -0.712152 0.361047 -0.602067
vn -0.712152 0.361047 -0.602067
vn -0.712152 0.361047 -0.602067
vn -0.712152 0.361047 -0.602067
vn -0.764189 0.630046 -0.138045
vn -0.764189 0.630046 -0.138045
vn -0.764189 0.630046 -0.138045
vn -0.764189 0.630046 -0.138045
vn -0.883095 0.459411 -0.095311
vn -0.883095 0.459411 -0.095311
vn -0.883095 0.459411 -0.095311
vn -0.883095 0.459411 -0.095311
vn -0.715092 0.497431 0.491127
vn -0.715092 0.497431 0.491127
vn -0.715092 0.497431 0.491127
vn -0.715092 0.497431 0.491127
vn -0.172614 0.666990 0.724796
vn -0.172614 0.666990 0.724796
vn -0.172614 0.666990 0.724796
vn -0.172614 0.666990 0.724796
vn -0.229866 0.432357 0.871911
vn -0.229866 0.432357 0.871911
vn -0.229866 0.432357 0.871911
vn -0.229866 0.432357 0.871911
vn 0.562062 0.481769 0.672299
vn 0.562062 0.481769 0.672299
vn 0.562062 0.481769 0.672299
vn 0.562062 0.481769 0.672299
vn -0.189931 0.915557 0.354516
vn -0.189931 0.915557 0.354516
vn -0.189931 0.915557 0.354516
vn -0.189931 0.915557 0.354516
vn 0.390344 0.896176 0.210948
vn 0.390344 0.896176 0.210948
vn 0.390344 0.896176 0.210948
vn 0.390344 0.896176 0.210948
vn 0.168298 0.923961 -0.343470
vn 0.168298 0.923961 -0.343470
vn 0.168298 0.923961 -0.343470
vn 0.168298 0.923961 -0.343470
s off
g Island
usemtl initialShadingGroup
f 21/13/1 10/15/2 2/12/3 11/11/4
f 22/16/5 14/14/6 3/17/7 15/18/8
f 23/19/9 17/20/10 4/22/11 18/1/12
f 24/2/13 12/3/14 1/4/15 20/5/16
f 25/6/17 15/18/18 3/17/19 18/1/20
f 12/3/21 21/13/22 11/11/23 1/4/24
f 5/21/25 9/10/26 21/13/27 12/3/28
f 9/10/29 6/7/30 10/15/31 21/13/32
f 10/15/33 22/16/34 15/18/35 2/12/36
f 6/7/37 13/8/38 22/16/39 10/15/40
f 13/8/41 7/9/42 14/14/43 22/16/44
f 14/14/45 23/19/46 18/1/47 3/17/48
f 7/9/49 16/23/50 23/19/51 14/14/52
f 16/23/53 8/24/54 17/20/55 23/19/56
f 17/20/57 24/2/58 20/5/59 4/22/60
f 8/24/61 19/25/62 24/2/63 17/20/64
f 19/25/65 5/21/66 12/3/67 24/2/68
f 20/5/69 25/6/70 18/1/71 4/22/72
f 1/4/73 11/11/74 25/6/75 20/5/76
f 11/11/77 2/12/78 15/18/79 25/6/80
