# This file uses centimeters as units for non-parametric coordinates.

g default
v -9.254103 -0.133798 1.629434
v 9.211607 -0.133792 1.629447
v -9.254103 0.142863 1.628662
v 9.211596 0.142865 1.628663
v -7.410306 0.133771 -1.629425
v 10.480728 0.133761 -1.629447
v -7.410302 -0.142888 -1.628660
v 10.480730 -0.142888 -1.628661
v 11.328505 0.324510 1.290792
v -10.639954 0.324372 1.238071
v -10.639956 -0.317479 1.239849
v 11.328508 -0.317328 1.292590
v 11.681545 0.317334 -1.279476
v -10.639959 0.317777 -1.121141
v -10.639956 -0.324063 -1.119346
v 11.681547 -0.324510 -1.277677
v 10.554108 0.323308 0.860054
v -11.337484 0.323310 0.860057
v -11.337482 -0.318530 0.861848
v 10.554121 -0.318522 0.861868
v 11.525293 0.321103 0.068513
v -11.045710 0.321097 0.068499
v -11.045706 -0.320741 0.070292
v 11.525295 -0.320733 0.070312
v 11.658627 0.318801 -0.754158
v -11.681547 0.318803 -0.754153
v -11.681530 -0.323033 -0.752347
v 11.658648 -0.323035 -0.752351
vt 0.892042 0.267542
vt 0.978701 0.267861
vt 0.978701 0.268742
vt 0.892065 0.268400
vt 0.987311 0.269685
vt 0.885843 0.269702
vt 0.900671 0.278639
vt 0.983378 0.278775
vt 0.983542 0.279633
vt 0.900617 0.279507
vt 0.885670 0.266188
vt 0.988235 0.266704
vt 0.979160 0.267902
vt 0.989412 0.268751
vt 0.884324 0.267986
vt 0.891743 0.267490
vt 0.984530 0.270966
vt 0.883069 0.270835
vt 0.880857 0.270111
vt 0.882468 0.264999
vt 0.984656 0.265328
vt 0.987849 0.270665
vt 0.886067 0.276890
vt 0.988307 0.277619
vt 0.885084 0.278754
vt 0.900431 0.257160
vt 0.983947 0.257347
vt 0.989540 0.258601
vt 0.885586 0.258815
vt 0.990137 0.278693
vt 0.988160 0.273451
vt 0.883759 0.273268
vt 0.880447 0.273005
vt 0.883751 0.262535
vt 0.988958 0.262844
vt 0.990925 0.273363
vt 0.988424 0.276000
vt 0.881845 0.275778
vt 0.879886 0.276768
vt 0.880840 0.259949
vt 0.989486 0.260254
vt 0.991189 0.276474
vn 0.000000 -0.342000 0.939700
vn 0.000000 -0.342000 0.939700
vn 0.000000 -0.342000 0.939700
vn 0.000000 -0.342000 0.939700
vn -0.000584 0.686747 0.726897
vn -0.000584 0.686747 0.726897
vn -0.000149 0.894540 0.446988
vn -0.000054 0.924741 0.380598
vn -0.000001 0.342010 -0.939696
vn -0.000001 0.342010 -0.939696
vn -0.000001 0.342010 -0.939696
vn -0.000001 0.342010 -0.939696
vn -0.000054 -0.953034 -0.302863
vn -0.000149 -0.972576 -0.232586
vn -0.000585 -0.993319 0.115397
vn -0.000585 -0.993319 0.115397
vn 0.157380 -0.337736 0.927990
vn 0.706081 -0.242171 0.665434
vn 0.706089 -0.242168 0.665427
vn 0.157380 -0.337736 0.927990
vn -0.366696 -0.318208 0.874230
vn -0.270950 -0.329240 0.904537
vn -0.270950 -0.329240 0.904537
vn -0.366694 -0.318208 0.874231
vn -0.000054 0.924741 0.380598
vn -0.000149 0.894540 0.446988
vn 0.000000 0.939692 0.342021
vn 0.000000 0.939692 0.342022
vn -0.944759 -0.112113 0.307995
vn -0.366696 -0.318208 0.874230
vn -0.366694 -0.318208 0.874231
vn -0.944758 -0.112114 0.307998
vn 0.000000 -0.939692 -0.342022
vn 0.000000 -0.939691 -0.342025
vn -0.000149 -0.972576 -0.232586
vn -0.000054 -0.953034 -0.302863
vn 0.706089 -0.242168 0.665427
vn 0.706081 -0.242171 0.665434
vn 0.987289 -0.054343 0.149356
vn 0.987283 -0.054357 0.149393
vn -0.000074 0.945949 0.324316
vn -0.000250 0.959463 0.281835
vn -0.001552 0.998422 -0.056137
vn -0.001552 0.998422 -0.056137
vn -0.155621 0.337856 -0.928243
vn -0.214417 0.334061 -0.917839
vn -0.214417 0.334061 -0.917839
vn -0.155621 0.337856 -0.928243
vn -0.001552 -0.728744 -0.684785
vn -0.001552 -0.728744 -0.684785
vn -0.000250 -0.916156 -0.400821
vn -0.000074 -0.933110 -0.359592
vn 0.704270 0.242803 -0.667121
vn 0.704276 0.242801 -0.667116
vn 0.280177 0.328301 -0.902064
vn 0.280177 0.328301 -0.902064
vn 0.000000 0.939692 0.342022
vn 0.000000 0.939692 0.342021
vn 0.000000 0.939693 0.342020
vn 0.000000 0.939692 0.342021
vn -0.978032 -0.071304 0.195883
vn -0.944759 -0.112113 0.307995
vn -0.944758 -0.112114 0.307998
vn -0.978031 -0.071305 0.195885
vn 0.000000 -0.939693 -0.342019
vn 0.000000 -0.939693 -0.342019
vn 0.000000 -0.939691 -0.342025
vn 0.000000 -0.939692 -0.342022
vn 0.987283 -0.054357 0.149393
vn 0.987289 -0.054343 0.149356
vn 0.825293 -0.193117 0.530658
vn 0.825294 -0.193117 0.530655
vn 0.000000 0.939692 0.342021
vn 0.000000 0.939693 0.342020
vn 0.000000 0.939693 0.342018
vn 0.000000 0.939693 0.342018
vn -0.946464 0.110386 -0.303349
vn -0.978032 -0.071304 0.195883
vn -0.978031 -0.071305 0.195885
vn -0.946461 0.110389 -0.303359
vn 0.000000 -0.939693 -0.342018
vn 0.000000 -0.939694 -0.342016
vn 0.000000 -0.939693 -0.342019
vn 0.000000 -0.939693 -0.342019
vn 0.825294 -0.193117 0.530655
vn 0.825293 -0.193117 0.530658
vn 0.993349 -0.039365 0.108207
vn 0.993349 -0.039364 0.108206
vn 0.000000 0.939693 0.342018
vn 0.000000 0.939693 0.342018
vn -0.000250 0.959463 0.281835
vn -0.000074 0.945949 0.324316
vn -0.214417 0.334061 -0.917839
vn -0.946464 0.110386 -0.303349
vn -0.946461 0.110389 -0.303359
vn -0.214417 0.334061 -0.917839
vn -0.000074 -0.933110 -0.359592
vn -0.000250 -0.916156 -0.400821
vn 0.000000 -0.939694 -0.342016
vn 0.000000 -0.939693 -0.342018
vn 0.993349 -0.039364 0.108206
vn 0.993349 -0.039365 0.108207
vn 0.704276 0.242801 -0.667116
vn 0.704270 0.242803 -0.667121
s off
g Plank_02
f 1/1/1 2/2/2 4/3/3 3/4/4
f 3/4/5 4/3/6 9/5/7 10/6/8
f 5/7/9 6/8/10 8/9/11 7/10/12
f 11/11/13 12/12/14 2/2/15 1/1/16
f 2/13/17 12/14/18 9/5/19 4/3/20
f 11/15/21 1/16/22 3/4/23 10/6/24
f 10/6/25 9/5/26 17/17/27 18/18/28
f 19/19/29 11/15/30 10/6/31 18/18/32
f 19/20/33 20/21/34 12/12/35 11/11/36
f 9/5/37 12/14/38 20/22/39 17/17/40
f 14/23/41 13/24/42 6/8/43 5/7/44
f 7/10/45 15/25/46 14/23/47 5/7/48
f 7/26/49 8/27/50 16/28/51 15/29/52
f 13/24/53 16/30/54 8/9/55 6/8/56
f 18/18/57 17/17/58 21/31/59 22/32/60
f 23/33/61 19/19/62 18/18/63 22/32/64
f 23/34/65 24/35/66 20/21/67 19/20/68
f 17/17/69 20/22/70 24/36/71 21/31/72
f 22/32/73 21/31/74 25/37/75 26/38/76
f 27/39/77 23/33/78 22/32/79 26/38/80
f 27/40/81 28/41/82 24/35/83 23/34/84
f 21/31/85 24/36/86 28/42/87 25/37/88
f 26/38/89 25/37/90 13/24/91 14/23/92
f 15/25/93 27/39/94 26/38/95 14/23/96
f 15/29/97 16/28/98 28/41/99 27/40/100
f 25/37/101 28/42/102 16/30/103 13/24/104
