# This file uses centimeters as units for non-parametric coordinates.

g default
v -10.011387 -0.151455 1.551119
v 9.114601 -0.207457 1.671586
v -10.015202 0.125174 1.552610
v 9.110809 0.069174 1.673089
v -8.143896 0.168324 -1.671597
v 10.417454 0.104589 -1.561530
v -8.140081 -0.108307 -1.673089
v 10.421261 -0.172039 -1.563014
v 11.743799 0.289907 1.337078
v -11.372295 0.291294 1.138533
v -11.363440 -0.350479 1.135089
v 11.752628 -0.351870 1.333635
v 11.588427 0.301350 -1.188428
v -11.329115 0.304577 -1.220246
v -11.320259 -0.337196 -1.223694
v 11.597286 -0.340427 -1.191863
v 11.266760 0.285131 1.001074
v -12.050722 0.284040 0.748013
v -12.041883 -0.357735 0.744556
v 11.275627 -0.356638 0.997645
v 11.295527 0.290209 0.131234
v -11.350863 0.297880 -0.030796
v -11.342028 -0.343893 -0.034266
v 11.304396 -0.351562 0.127822
v 12.041874 0.304956 -0.697123
v -11.014584 0.357735 -0.351912
v -11.005751 -0.284042 -0.355399
v 12.050722 -0.336817 -0.700580
vt 0.889522 0.266651
vt 0.976647 0.266651
vt 0.976617 0.267532
vt 0.889515 0.267517
vt 0.987448 0.268668
vt 0.883600 0.268877
vt 0.898029 0.277764
vt 0.981808 0.277816
vt 0.981955 0.278682
vt 0.897984 0.278637
vt 0.883453 0.265228
vt 0.988286 0.265465
vt 0.976963 0.266676
vt 0.989381 0.267531
vt 0.881862 0.267279
vt 0.889156 0.266597
vt 0.985747 0.269686
vt 0.880934 0.270064
vt 0.878678 0.269774
vt 0.880408 0.264010
vt 0.986133 0.264408
vt 0.988822 0.269588
vt 0.884277 0.276244
vt 0.986655 0.276537
vt 0.883052 0.277880
vt 0.897776 0.256130
vt 0.982020 0.256207
vt 0.987356 0.257473
vt 0.883539 0.257773
vt 0.988421 0.277910
vt 0.985842 0.272435
vt 0.883386 0.272514
vt 0.880538 0.273125
vt 0.883475 0.261546
vt 0.986205 0.261651
vt 0.989103 0.272136
vt 0.988403 0.275017
vt 0.884883 0.273556
vt 0.881650 0.274528
vt 0.884957 0.260512
vt 0.989428 0.259019
vt 0.990702 0.275664
vn -0.075204 -0.086944 0.993371
vn -0.075204 -0.086944 0.993371
vn -0.075204 -0.086944 0.993371
vn -0.075204 -0.086944 0.993371
vn -0.020989 0.850047 0.526289
vn -0.020989 0.850047 0.526289
vn 0.007530 0.985146 0.171555
vn 0.011459 0.992753 0.119623
vn 0.074839 0.086913 -0.993401
vn 0.074839 0.086913 -0.993401
vn 0.074839 0.086913 -0.993401
vn 0.074839 0.086913 -0.993401
vn -0.019046 -0.999606 -0.020614
vn -0.021854 -0.999645 0.015268
vn -0.045320 -0.942808 0.330240
vn -0.045320 -0.942808 0.330240
vn 0.058242 -0.087021 0.994503
vn 0.328554 -0.082343 0.940889
vn 0.328561 -0.082343 0.940886
vn 0.058242 -0.087021 0.994503
vn -0.451920 -0.077743 0.888664
vn -0.358066 -0.081373 0.930144
vn -0.358066 -0.081373 0.930144
vn -0.451921 -0.077743 0.888664
vn 0.011459 0.992753 0.119623
vn 0.007530 0.985146 0.171555
vn 0.014230 0.996479 0.082628
vn 0.013809 0.995997 0.088317
vn -0.996193 0.007628 -0.086839
vn -0.451920 -0.077743 0.888664
vn -0.451921 -0.077743 0.888664
vn -0.996194 0.007627 -0.086831
vn -0.013809 -0.995997 -0.088318
vn -0.014230 -0.996479 -0.082630
vn -0.021854 -0.999645 0.015268
vn -0.019046 -0.999606 -0.020614
vn 0.328561 -0.082343 0.940886
vn 0.328554 -0.082343 0.940889
vn 0.959098 0.024680 -0.281997
vn 0.959105 0.024678 -0.281973
vn 0.019577 0.999633 0.018732
vn 0.019915 0.999702 0.014136
vn 0.041266 0.956289 -0.289498
vn 0.041266 0.956289 -0.289498
vn -0.071614 0.086932 -0.993637
vn -0.458291 0.077466 -0.885420
vn -0.484715 0.076234 -0.871343
vn -0.071614 0.086932 -0.993637
vn 0.017310 -0.861366 -0.507690
vn 0.017310 -0.861366 -0.507690
vn -0.015261 -0.996772 -0.078825
vn -0.015502 -0.997030 -0.075438
vn 0.574243 0.071340 -0.815571
vn 0.574250 0.071340 -0.815566
vn 0.367153 0.081048 -0.926623
vn 0.367153 0.081048 -0.926623
vn 0.013809 0.995997 0.088317
vn 0.014230 0.996479 0.082628
vn 0.012238 0.992487 0.121738
vn 0.012952 0.994442 0.104491
vn -0.679656 0.063967 -0.730736
vn -0.996193 0.007628 -0.086839
vn -0.996194 0.007627 -0.086831
vn -0.677900 0.064109 -0.732353
vn -0.012951 -0.994442 -0.104491
vn -0.012238 -0.992487 -0.121735
vn -0.014230 -0.996479 -0.082630
vn -0.013809 -0.995997 -0.088318
vn 0.959105 0.024678 -0.281973
vn 0.959098 0.024680 -0.281997
vn 0.878945 -0.041538 0.475111
vn 0.878936 -0.041539 0.475128
vn 0.012952 0.994442 0.104491
vn 0.012238 0.992487 0.121738
vn 0.014899 0.995888 0.089356
vn 0.014477 0.995274 0.096018
vn -0.995319 0.008446 -0.096277
vn -0.679656 0.063967 -0.730736
vn -0.677900 0.064109 -0.732353
vn -0.997055 0.006706 -0.076397
vn -0.014478 -0.995275 -0.096016
vn -0.014899 -0.995888 -0.089357
vn -0.012238 -0.992487 -0.121735
vn -0.012951 -0.994442 -0.104491
vn 0.878936 -0.041539 0.475128
vn 0.878945 -0.041538 0.475111
vn 0.958992 -0.024682 0.282355
vn 0.958990 -0.024683 0.282362
vn 0.014477 0.995274 0.096018
vn 0.014899 0.995888 0.089356
vn 0.019915 0.999702 0.014136
vn 0.019577 0.999633 0.018732
vn -0.458291 0.077466 -0.885420
vn -0.995319 0.008446 -0.096277
vn -0.997055 0.006706 -0.076397
vn -0.484715 0.076234 -0.871343
vn -0.015502 -0.997030 -0.075438
vn -0.015261 -0.996772 -0.078825
vn -0.014899 -0.995888 -0.089357
vn -0.014478 -0.995275 -0.096016
vn 0.958990 -0.024683 0.282362
vn 0.958992 -0.024682 0.282355
vn 0.574250 0.071340 -0.815566
vn 0.574243 0.071340 -0.815571
s off
g Plank_04
f 1/1/1 2/2/2 4/3/3 3/4/4
f 3/4/5 4/3/6 9/5/7 10/6/8
f 5/7/9 6/8/10 8/9/11 7/10/12
f 11/11/13 12/12/14 2/2/15 1/1/16
f 2/13/17 12/14/18 9/5/19 4/3/20
f 11/15/21 1/16/22 3/4/23 10/6/24
f 10/6/25 9/5/26 17/17/27 18/18/28
f 19/19/29 11/15/30 10/6/31 18/18/32
f 19/20/33 20/21/34 12/12/35 11/11/36
f 9/5/37 12/14/38 20/22/39 17/17/40
f 14/23/41 13/24/42 6/8/43 5/7/44
f 7/10/45 15/25/46 14/23/47 5/7/48
f 7/26/49 8/27/50 16/28/51 15/29/52
f 13/24/53 16/30/54 8/9/55 6/8/56
f 18/18/57 17/17/58 21/31/59 22/32/60
f 23/33/61 19/19/62 18/18/63 22/32/64
f 23/34/65 24/35/66 20/21/67 19/20/68
f 17/17/69 20/22/70 24/36/71 21/31/72
f 22/32/73 21/31/74 25/37/75 26/38/76
f 27/39/77 23/33/78 22/32/79 26/38/80
f 27/40/81 28/41/82 24/35/83 23/34/84
f 21/31/85 24/36/86 28/42/87 25/37/88
f 26/38/89 25/37/90 13/24/91 14/23/92
f 15/25/93 27/39/94 26/38/95 14/23/96
f 15/29/97 16/28/98 28/41/99 27/40/100
f 25/37/101 28/42/102 16/30/103 13/24/104
