# This file uses centimeters as units for non-parametric coordinates.

g default
v -0.796352 1.182545 -1.178951
v 0.017115 1.744179 0.326080
v 2.624340 0.000000 0.119106
v 0.039301 0.000000 -1.633053
v -1.472187 1.376980 -0.394190
v -0.698059 1.580853 0.766651
v 0.965034 0.000000 1.629807
v -2.013607 0.000000 -0.291531
v -1.191704 1.690292 0.485994
v -0.341264 1.770180 0.555094
v -0.382951 1.707809 -0.493855
v -1.231850 1.420349 -0.830101
v -0.093678 0.801882 1.424908
v 2.056412 0.000000 1.190990
v 1.354832 0.985275 0.245379
v -1.161068 0.000000 1.322811
v -1.131805 0.000000 -1.369980
v 1.891896 0.000000 -0.969307
v -1.862232 0.815683 -0.252150
v -0.543953 0.679497 -1.665146
v -0.861580 1.895828 -0.147840
v 0.778042 0.925243 0.871971
v -1.197521 0.648424 -1.245480
v 0.614532 0.972816 -0.858395
v -1.359283 0.705795 1.190643
vt 0.813677 0.153310
vt 0.818976 0.168905
vt 0.811012 0.172121
vt 0.802509 0.155875
vt 0.800618 0.055939
vt 0.770865 0.060237
vt 0.765320 0.034265
vt 0.793301 0.042059
vt 0.797730 0.122800
vt 0.807491 0.137505
vt 0.794952 0.137792
vt 0.780571 0.132500
vt 0.811212 0.025382
vt 0.783516 0.011864
vt 0.851437 0.158050
vt 0.837539 0.187697
vt 0.827533 0.165769
vt 0.827079 0.154728
vt 0.818144 0.137912
vt 0.813513 0.196735
vt 0.793071 0.196760
vt 0.814470 0.068523
vt 0.790164 0.077491
vt 0.854680 0.017835
vt 0.846003 0.027091
vt 0.835852 0.017653
vt 0.827523 0.002963
vt 0.866890 0.051028
vt 0.851665 0.048029
vt 0.828836 0.126743
vt 0.778672 0.168017
vt 0.838192 0.083422
vt 0.836215 0.069554
vn 0.226632 0.971740 -0.066025
vn 0.226632 0.971740 -0.066025
vn 0.226632 0.971740 -0.066025
vn 0.226632 0.971740 -0.066025
vn 0.638686 0.701033 0.317227
vn 0.638686 0.701033 0.317227
vn 0.638686 0.701033 0.317227
vn 0.638686 0.701033 0.317227
vn -0.465059 0.440459 -0.767930
vn -0.465059 0.440459 -0.767930
vn -0.465059 0.440459 -0.767930
vn -0.465059 0.440459 -0.767930
vn 0.655069 0.690516 -0.306713
vn 0.655069 0.690516 -0.306713
vn 0.655069 0.690516 -0.306713
vn 0.655069 0.690516 -0.306713
vn -0.242948 0.562432 0.790346
vn -0.242948 0.562432 0.790346
vn -0.242948 0.562432 0.790346
vn -0.242948 0.562432 0.790346
vn -0.053827 0.819484 -0.570569
vn -0.053827 0.819484 -0.570569
vn -0.053827 0.819484 -0.570569
vn -0.053827 0.819484 -0.570569
vn -0.607234 0.781752 -0.141883
vn -0.607234 0.781752 -0.141883
vn -0.607234 0.781752 -0.141883
vn -0.607234 0.781752 -0.141883
vn -0.120476 0.932226 0.341234
vn -0.120476 0.932226 0.341234
vn -0.120476 0.932226 0.341234
vn -0.120476 0.932226 0.341234
vn 0.550804 0.675632 0.490038
vn 0.550804 0.675632 0.490038
vn 0.550804 0.675632 0.490038
vn 0.550804 0.675632 0.490038
vn 0.315885 0.665654 0.676107
vn 0.315885 0.665654 0.676107
vn 0.315885 0.665654 0.676107
vn 0.315885 0.665654 0.676107
vn 0.397501 0.635201 0.662202
vn 0.397501 0.635201 0.662202
vn 0.397501 0.635201 0.662202
vn 0.397501 0.635201 0.662202
vn -0.366421 -0.091780 -0.925911
vn -0.366421 -0.091780 -0.925911
vn -0.366421 -0.091780 -0.925911
vn -0.366421 -0.091780 -0.925911
vn -0.791784 0.113286 -0.600204
vn -0.791784 0.113286 -0.600204
vn -0.791784 0.113286 -0.600204
vn -0.791784 0.113286 -0.600204
vn -0.788312 0.317914 -0.526778
vn -0.788312 0.317914 -0.526778
vn -0.788312 0.317914 -0.526778
vn -0.788312 0.317914 -0.526778
vn 0.444804 0.435636 -0.782541
vn 0.444804 0.435636 -0.782541
vn 0.444804 0.435636 -0.782541
vn 0.444804 0.435636 -0.782541
vn 0.306652 0.696291 -0.648955
vn 0.306652 0.696291 -0.648955
vn 0.306652 0.696291 -0.648955
vn 0.306652 0.696291 -0.648955
vn 0.590770 0.756488 -0.280565
vn 0.590770 0.756488 -0.280565
vn 0.590770 0.756488 -0.280565
vn 0.590770 0.756488 -0.280565
vn -0.858890 0.446702 0.250530
vn -0.858890 0.446702 0.250530
vn -0.858890 0.446702 0.250530
vn -0.858890 0.446702 0.250530
vn -0.914373 -0.002585 0.404864
vn -0.914373 -0.002585 0.404864
vn -0.914373 -0.002585 0.404864
vn -0.914373 -0.002585 0.404864
vn -0.180780 0.092505 0.979164
vn -0.180780 0.092505 0.979164
vn -0.180780 0.092505 0.979164
vn -0.180780 0.092505 0.979164
s off
g stone3
f 21/1/1 10/2/2 2/3/3 11/4/4
f 22/5/5 14/6/6 3/7/7 15/8/8
f 23/9/9 12/10/10 1/11/11 20/12/12
f 24/13/13 15/8/14 3/7/15 18/14/16
f 25/15/17 13/16/18 6/17/19 9/18/20
f 12/10/21 21/1/22 11/4/23 1/11/24
f 5/19/25 9/18/26 21/1/27 12/10/28
f 9/18/29 6/17/30 10/2/31 21/1/32
f 10/2/33 22/20/34 15/21/35 2/3/36
f 6/17/37 13/16/38 22/20/39 10/2/40
f 13/22/41 7/23/42 14/6/43 22/5/44
f 17/24/45 23/25/46 20/26/47 4/27/48
f 8/28/49 19/29/50 23/25/51 17/24/52
f 19/30/53 5/19/54 12/10/55 23/9/56
f 20/26/57 24/13/58 18/14/59 4/27/60
f 1/11/61 11/4/62 24/31/63 20/12/64
f 11/4/65 2/3/66 15/21/67 24/31/68
f 19/30/69 25/15/70 9/18/71 5/19/72
f 8/28/73 16/32/74 25/33/75 19/29/76
f 16/32/77 7/23/78 13/22/79 25/33/80
