# This file uses centimeters as units for non-parametric coordinates.

g default
v 0.577621 1.448185 0.312716
v 0.221375 1.392406 -1.208241
v -0.912994 1.431580 -0.423479
v -0.567993 1.413204 1.120014
v 1.873848 0.000000 0.936016
v 0.592941 0.000000 -2.088753
v -1.841839 0.000000 -0.786566
v -1.229427 0.000000 1.885208
v 1.830215 0.000000 -0.966068
v 0.417213 0.876717 -1.749741
v 0.499496 1.630165 -0.519367
v 1.389557 0.847569 0.693346
v -0.763817 0.000000 -1.965271
v -1.418411 0.823162 -0.697351
v -0.390678 1.592880 -1.055847
v -2.004383 0.000000 0.764200
v -0.930687 0.827244 1.489670
v -0.930122 1.631775 0.290161
v 0.288437 0.000000 2.221283
v -0.077316 1.508160 1.066296
v 1.337189 0.862228 -0.881817
v -0.649704 0.866447 -1.677086
v -1.502163 0.929523 0.546644
v 0.104095 0.810133 1.835045
v -0.309265 1.919769 -0.049607
vt 0.431413 0.125357
vt 0.444460 0.111520
vt 0.448630 0.120496
vt 0.446236 0.130171
vt 0.460616 0.110830
vt 0.474260 0.123600
vt 0.464908 0.129671
vt 0.456860 0.122802
vt 0.476505 0.142398
vt 0.468482 0.157275
vt 0.461483 0.150195
vt 0.464740 0.139007
vt 0.453158 0.163263
vt 0.432954 0.148432
vt 0.445337 0.141026
vt 0.454847 0.149737
vt 0.440477 0.136485
vt 0.440102 0.124113
vt 0.448451 0.130433
vt 0.448738 0.139873
vt 0.569254 0.167917
vt 0.542142 0.169688
vt 0.544815 0.157965
vt 0.563430 0.157646
vt 0.524198 0.152287
vt 0.534260 0.147272
vt 0.524258 0.130927
vt 0.534806 0.135063
vt 0.541342 0.114352
vt 0.545286 0.124987
vt 0.564098 0.111279
vt 0.559947 0.123320
vt 0.580809 0.122665
vt 0.571424 0.129419
vt 0.586415 0.145021
vt 0.575929 0.141511
vt 0.439346 0.150639
vt 0.445465 0.150798
vt 0.429679 0.142769
vt 0.429947 0.131993
vt 0.432175 0.122709
vn 0.487103 0.729905 -0.479552
vn 0.487103 0.729905 -0.479552
vn 0.487103 0.729905 -0.479552
vn 0.487103 0.729905 -0.479552
vn -0.632943 0.647290 -0.424735
vn -0.632943 0.647290 -0.424735
vn -0.632943 0.647290 -0.424735
vn -0.632943 0.647290 -0.424735
vn -0.610998 0.657579 0.440763
vn -0.610998 0.657579 0.440763
vn -0.610998 0.657579 0.440763
vn -0.610998 0.657579 0.440763
vn 0.459179 0.759316 0.461079
vn 0.459179 0.759316 0.461079
vn 0.459179 0.759316 0.461079
vn 0.459179 0.759316 0.461079
vn -0.520507 0.821636 -0.232350
vn -0.520507 0.821636 -0.232350
vn -0.520507 0.821636 -0.232350
vn -0.520507 0.821636 -0.232350
vn 0.638053 0.769473 0.028269
vn 0.638053 0.769473 0.028269
vn 0.638053 0.769473 0.028269
vn 0.638053 0.769473 0.028269
vn 0.868840 0.494608 -0.021902
vn 0.868840 0.494608 -0.021902
vn 0.868840 0.494608 -0.021902
vn 0.868840 0.494608 -0.021902
vn 0.622194 0.402690 -0.671353
vn 0.622194 0.402690 -0.671353
vn 0.622194 0.402690 -0.671353
vn 0.622194 0.402690 -0.671353
vn -0.020299 0.683801 -0.729386
vn -0.020299 0.683801 -0.729386
vn -0.020299 0.683801 -0.729386
vn -0.020299 0.683801 -0.729386
vn -0.077407 0.335118 -0.938991
vn -0.077407 0.335118 -0.938991
vn -0.077407 0.335118 -0.938991
vn -0.077407 0.335118 -0.938991
vn -0.712152 0.361047 -0.602067
vn -0.712152 0.361047 -0.602067
vn -0.712152 0.361047 -0.602067
vn -0.712152 0.361047 -0.602067
vn -0.764189 0.630046 -0.138045
vn -0.764189 0.630046 -0.138045
vn -0.764189 0.630046 -0.138045
vn -0.764189 0.630046 -0.138045
vn -0.883095 0.459411 -0.095311
vn -0.883095 0.459411 -0.095311
vn -0.883095 0.459411 -0.095311
vn -0.883095 0.459411 -0.095311
vn -0.715092 0.497431 0.491127
vn -0.715092 0.497431 0.491127
vn -0.715092 0.497431 0.491127
vn -0.715092 0.497431 0.491127
vn -0.172614 0.666990 0.724796
vn -0.172614 0.666990 0.724796
vn -0.172614 0.666990 0.724796
vn -0.172614 0.666990 0.724796
vn -0.229866 0.432357 0.871911
vn -0.229866 0.432357 0.871911
vn -0.229866 0.432357 0.871911
vn -0.229866 0.432357 0.871911
vn 0.562062 0.481769 0.672299
vn 0.562062 0.481769 0.672299
vn 0.562062 0.481769 0.672299
vn 0.562062 0.481769 0.672299
vn -0.189931 0.915557 0.354516
vn -0.189931 0.915557 0.354516
vn -0.189931 0.915557 0.354516
vn -0.189931 0.915557 0.354516
vn 0.390344 0.896177 0.210948
vn 0.390344 0.896177 0.210948
vn 0.390344 0.896177 0.210948
vn 0.390344 0.896177 0.210948
vn 0.168298 0.923961 -0.343470
vn 0.168298 0.923961 -0.343470
vn 0.168298 0.923961 -0.343470
vn 0.168298 0.923961 -0.343470
s off
g stone8
f 21/1/1 10/2/2 2/3/3 11/4/4
f 22/5/5 14/6/6 3/7/7 15/8/8
f 23/9/9 17/10/10 4/11/11 18/12/12
f 24/13/13 12/14/14 1/15/15 20/16/16
f 25/17/17 15/18/18 3/19/19 18/20/20
f 12/14/21 21/1/22 11/4/23 1/15/24
f 5/21/25 9/22/26 21/23/27 12/24/28
f 9/22/29 6/25/30 10/26/31 21/23/32
f 10/2/33 22/5/34 15/8/35 2/3/36
f 6/25/37 13/27/38 22/28/39 10/26/40
f 13/27/41 7/29/42 14/30/43 22/28/44
f 14/6/45 23/9/46 18/12/47 3/7/48
f 7/29/49 16/31/50 23/32/51 14/30/52
f 16/31/53 8/33/54 17/34/55 23/32/56
f 17/10/57 24/13/58 20/16/59 4/11/60
f 8/33/61 19/35/62 24/36/63 17/34/64
f 19/35/65 5/21/66 12/24/67 24/36/68
f 20/37/69 25/17/70 18/20/71 4/38/72
f 1/39/73 11/40/74 25/17/75 20/37/76
f 11/40/77 2/41/78 15/18/79 25/17/80
