# This file uses centimeters as units for non-parametric coordinates.

g default
v -1.575577 -0.002462 1.474487
v -1.359131 0.020138 -1.373829
v 1.820805 0.001385 1.349731
v -0.845978 2.268654 0.010511
v -1.569313 1.878281 -0.919273
v -2.091228 0.001385 0.235946
v 0.619263 0.382313 2.172607
v -1.103455 1.072865 1.409927
v -1.466560 0.387933 1.412544
v -0.291924 0.565563 -1.990181
v -0.463110 1.371544 -1.948513
v -0.173388 0.001385 -2.083214
v 0.466040 0.001385 2.190239
v 0.573227 1.971245 -1.054842
v 0.768421 2.075218 0.470770
v -2.194439 0.596926 0.180192
v 1.036949 0.001385 -1.630768
v 2.146595 0.001385 0.572958
v 1.887043 0.726187 1.660393
v -0.144642 1.491356 1.340420
v -1.822624 1.533676 0.375519
v -1.662971 0.816248 -1.367306
v 0.906673 1.068871 -1.546936
v 1.827213 0.001385 -0.691422
v 1.971088 0.768623 -0.783960
v 2.581783 0.956017 0.816252
v 0.609104 0.822315 2.034683
v 1.284901 1.504650 1.129620
v 1.520023 1.467850 -0.360437
v -0.655449 2.291832 -1.535238
v 1.914982 1.608192 0.672161
vt 0.780445 0.042436
vt 0.788527 0.047889
vt 0.788162 0.058933
vt 0.774417 0.059421
vt 0.896725 0.057261
vt 0.894393 0.028686
vt 0.909524 0.034566
vt 0.910348 0.050585
vt 0.797181 0.027962
vt 0.800989 0.031579
vt 0.828942 0.025853
vt 0.846523 0.039936
vt 0.839595 0.041972
vt 0.827637 0.030976
vt 0.832387 0.082123
vt 0.812904 0.078705
vt 0.828212 0.077082
vt 0.950757 0.035526
vt 0.927332 0.039245
vt 0.924774 0.021159
vt 0.945152 0.019496
vt 0.969415 0.038010
vt 0.975667 0.033490
vt 0.976834 0.060007
vt 0.839410 0.089219
vt 0.850047 0.066144
vt 0.838969 0.064425
vt 0.922166 0.065554
vt 0.944133 0.056269
vt 0.956730 0.068863
vt 0.939312 0.075614
vt 0.915097 0.079980
vt 0.938050 0.089938
vt 0.967232 0.078921
vt 0.959272 0.056817
vt 0.917354 0.007242
vt 0.945542 0.006754
vt 0.813929 0.091963
vt 0.798820 0.072139
vt 0.792709 0.081081
vn 0.856887 -0.125490 0.499997
vn 0.856887 -0.125490 0.499997
vn 0.856887 -0.125490 0.499997
vn 0.856887 -0.125490 0.499997
vn -0.440083 0.757478 -0.482238
vn -0.440083 0.757478 -0.482238
vn -0.440083 0.757478 -0.482238
vn -0.440083 0.757478 -0.482238
vn 0.494862 -0.017710 0.868791
vn 0.494862 -0.017710 0.868791
vn 0.494862 -0.017710 0.868791
vn 0.494862 -0.017710 0.868791
vn -0.826868 0.377847 0.416559
vn -0.826868 0.377847 0.416559
vn -0.826868 0.377847 0.416559
vn -0.826868 0.377847 0.416559
vn 0.296728 0.530918 -0.793775
vn 0.296728 0.530918 -0.793775
vn 0.296728 0.530918 -0.793775
vn -0.343357 0.758009 0.554553
vn -0.343357 0.758009 0.554553
vn -0.343357 0.758009 0.554553
vn -0.343357 0.758009 0.554553
vn 0.258776 0.543249 0.798696
vn 0.258776 0.543249 0.798696
vn 0.258776 0.543249 0.798696
vn -0.450343 0.839478 -0.304084
vn -0.450343 0.839478 -0.304084
vn -0.450343 0.839478 -0.304084
vn -0.450343 0.839478 -0.304084
vn -0.382129 0.578887 -0.720324
vn -0.382129 0.578887 -0.720324
vn -0.382129 0.578887 -0.720324
vn -0.898000 0.135649 -0.418564
vn -0.898000 0.135649 -0.418564
vn -0.898000 0.135649 -0.418564
vn -0.898000 0.135649 -0.418564
vn 0.379500 0.889796 -0.253460
vn 0.379500 0.889796 -0.253460
vn 0.379500 0.889796 -0.253460
vn 0.379500 0.889796 -0.253460
vn 0.469523 0.714880 -0.518165
vn 0.469523 0.714880 -0.518165
vn 0.469523 0.714880 -0.518165
vn 0.469523 0.714880 -0.518165
vn 0.068776 0.796206 -0.601103
vn 0.068776 0.796206 -0.601103
vn 0.068776 0.796206 -0.601103
vn 0.068776 0.796206 -0.601103
vn 0.430738 0.677958 0.595682
vn 0.430738 0.677958 0.595682
vn 0.430738 0.677958 0.595682
vn 0.430738 0.677958 0.595682
vn -0.000550 0.980649 -0.195775
vn -0.000550 0.980649 -0.195775
vn -0.000550 0.980649 -0.195775
vn -0.000550 0.980649 -0.195775
vn -0.745679 0.400231 0.532709
vn -0.745679 0.400231 0.532709
vn -0.745679 0.400231 0.532709
vn -0.745679 0.400231 0.532709
vn -0.470307 0.365089 -0.803444
vn -0.470307 0.365089 -0.803444
vn -0.470307 0.365089 -0.803444
vn -0.470307 0.365089 -0.803444
vn 0.194076 0.481846 -0.854493
vn 0.194076 0.481846 -0.854493
vn 0.194076 0.481846 -0.854493
vn 0.194076 0.481846 -0.854493
vn 0.678285 0.652332 -0.338219
vn 0.678285 0.652332 -0.338219
vn 0.678285 0.652332 -0.338219
vn 0.678285 0.652332 -0.338219
vn 0.660830 0.249027 -0.708018
vn 0.660830 0.249027 -0.708018
vn 0.660830 0.249027 -0.708018
vn 0.660830 0.249027 -0.708018
vn 0.001032 0.817461 0.575983
vn 0.001032 0.817461 0.575983
vn 0.001032 0.817461 0.575983
vn 0.001032 0.817461 0.575983
vn 0.953785 -0.035995 -0.298325
vn 0.953785 -0.035995 -0.298325
vn 0.953785 -0.035995 -0.298325
vn 0.953785 -0.035995 -0.298325
vn -0.680457 0.640067 -0.356781
vn -0.680457 0.640067 -0.356781
vn -0.680457 0.640067 -0.356781
vn -0.680457 0.640067 -0.356781
vn 0.161571 0.726252 0.668171
vn 0.161571 0.726252 0.668171
vn 0.161571 0.726252 0.668171
vn 0.161571 0.726252 0.668171
vn -0.213215 0.552277 0.805934
vn -0.213215 0.552277 0.805934
vn -0.213215 0.552277 0.805934
vn -0.213215 0.552277 0.805934
vn 0.258434 0.802611 0.537612
vn 0.258434 0.802611 0.537612
vn 0.258434 0.802611 0.537612
vn -0.330440 0.318228 0.888561
vn -0.330440 0.318228 0.888561
vn -0.330440 0.318228 0.888561
vn -0.303110 0.452589 0.838623
vn -0.303110 0.452589 0.838623
vn -0.303110 0.452589 0.838623
vn -0.303110 0.452589 0.838623
s off
g stone5
f 19/1/1 3/2/2 18/3/3 26/4/4
f 11/5/5 22/6/6 5/7/7 30/8/8
f 7/9/9 13/10/10 3/2/11 19/1/12
f 9/11/13 16/12/14 6/13/15 1/14/16
f 10/15/17 17/16/18 12/17/19
f 20/18/20 4/19/21 21/20/22 8/21/23
f 27/22/24 7/23/25 19/24/26
f 30/8/27 5/7/28 21/20/29 4/19/30
f 11/25/31 10/15/32 22/26/33
f 2/27/34 6/13/35 16/12/36 22/26/37
f 14/28/38 15/29/39 31/30/40 29/31/41
f 23/32/42 14/28/43 29/31/44 25/33/45
f 14/28/46 23/32/47 11/5/48 30/8/49
f 26/34/50 31/30/51 28/35/52 19/24/53
f 30/8/54 4/19/55 15/29/56 14/28/57
f 16/36/58 9/37/59 8/21/60 21/20/61
f 2/27/62 22/26/63 10/15/64 12/17/65
f 17/16/66 10/15/67 11/25/68 23/38/69
f 29/31/70 31/30/71 26/34/72 25/33/73
f 24/39/74 17/16/75 23/38/76 25/40/77
f 20/18/78 28/35/79 15/29/80 4/19/81
f 24/39/82 25/40/83 26/4/84 18/3/85
f 5/7/86 22/6/87 16/36/88 21/20/89
f 28/35/90 20/18/91 27/22/92 19/24/93
f 20/18/94 8/21/95 7/23/96 27/22/97
f 31/30/98 15/29/99 28/35/100
f 8/21/101 9/37/102 7/23/103
f 7/9/104 9/11/105 1/14/106 13/10/107
