# This file uses centimeters as units for non-parametric coordinates.

g default
v -0.730225 1.152184 1.963318
v -0.056932 1.623714 -0.582790
v -1.123720 0.000001 -1.424641
v -1.456244 0.000000 1.581650
v 1.133329 1.169098 1.860474
v 1.452406 1.576340 -0.261067
v 1.016600 0.000001 -1.620762
v 0.784960 -0.000001 2.032814
v 1.645903 1.516079 0.623590
v 0.810606 2.017433 -0.575164
v -0.378450 1.733070 0.670328
v 0.250551 1.287300 2.105118
v 1.738935 0.909084 -1.428177
v -0.069784 0.000001 -2.073227
v -0.702549 1.132011 -1.330662
v 1.956007 0.000000 -0.154676
v -0.341356 -0.000001 2.522003
v -1.966459 0.000000 -0.242895
v 1.167433 0.447031 2.353996
v -1.339235 0.541458 2.241768
v 0.569944 2.248428 0.952579
v 0.489294 1.176212 -2.027771
v -0.199049 0.433088 2.889435
v -1.822248 0.832668 0.201922
v 2.403196 0.550117 0.230810
vt 0.446119 0.140357
vt 0.459106 0.138866
vt 0.458584 0.147247
vt 0.446981 0.150105
vt 0.697810 0.142454
vt 0.707464 0.148506
vt 0.697741 0.166105
vt 0.692189 0.155736
vt 0.422524 0.143241
vt 0.433479 0.141388
vt 0.433803 0.150540
vt 0.427923 0.155518
vt 0.674543 0.168155
vt 0.678702 0.175566
vt 0.450809 0.119317
vt 0.466473 0.127218
vt 0.456119 0.132519
vt 0.448335 0.130234
vt 0.436232 0.133682
vt 0.472114 0.140174
vt 0.466493 0.153456
vt 0.692169 0.129497
vt 0.703447 0.128856
vt 0.643520 0.147136
vt 0.648220 0.145521
vt 0.653619 0.157797
vt 0.654115 0.166323
vt 0.648876 0.128302
vt 0.654220 0.132102
vt 0.428524 0.129822
vt 0.448847 0.165875
vt 0.679593 0.115023
vt 0.676505 0.121597
vn -0.188896 0.967388 -0.168756
vn -0.188896 0.967388 -0.168756
vn -0.188896 0.967388 -0.168756
vn -0.188896 0.967388 -0.168756
vn -0.414451 0.617198 -0.668803
vn -0.414451 0.617198 -0.668803
vn -0.414451 0.617198 -0.668803
vn -0.414451 0.617198 -0.668803
vn -0.355730 0.497859 0.790944
vn -0.355730 0.497859 0.790944
vn -0.355730 0.497859 0.790944
vn -0.355730 0.497859 0.790944
vn -0.708145 0.635778 -0.307111
vn -0.708145 0.635778 -0.307111
vn -0.708145 0.635778 -0.307111
vn -0.708145 0.635778 -0.307111
vn 0.931457 0.298079 -0.208653
vn 0.931457 0.298079 -0.208653
vn 0.931457 0.298079 -0.208653
vn 0.931457 0.298079 -0.208653
vn -0.264035 0.849891 0.456038
vn -0.264035 0.849891 0.456038
vn -0.264035 0.849891 0.456038
vn -0.264035 0.849891 0.456038
vn 0.561242 0.542952 0.624668
vn 0.561242 0.542952 0.624668
vn 0.561242 0.542952 0.624668
vn 0.561242 0.542952 0.624668
vn 0.671061 0.741329 0.010430
vn 0.671061 0.741329 0.010430
vn 0.671061 0.741329 0.010430
vn 0.671061 0.741329 0.010430
vn -0.252269 0.833045 -0.492338
vn -0.252269 0.833045 -0.492338
vn -0.252269 0.833045 -0.492338
vn -0.252269 0.833045 -0.492338
vn 0.557505 0.550977 -0.620978
vn 0.557505 0.550977 -0.620978
vn 0.557505 0.550977 -0.620978
vn 0.557505 0.550977 -0.620978
vn 0.442863 0.322085 -0.836740
vn 0.442863 0.322085 -0.836740
vn 0.442863 0.322085 -0.836740
vn 0.442863 0.322085 -0.836740
vn -0.539503 -0.138090 0.830583
vn -0.539503 -0.138090 0.830583
vn -0.539503 -0.138090 0.830583
vn -0.539503 -0.138090 0.830583
vn 0.353474 -0.339120 0.871811
vn 0.353474 -0.339120 0.871811
vn 0.353474 -0.339120 0.871811
vn 0.353474 -0.339120 0.871811
vn 0.371416 0.316281 0.872935
vn 0.371416 0.316281 0.872935
vn 0.371416 0.316281 0.872935
vn 0.371416 0.316281 0.872935
vn -0.887641 0.408036 0.213544
vn -0.887641 0.408036 0.213544
vn -0.887641 0.408036 0.213544
vn -0.887641 0.408036 0.213544
vn -0.780760 0.591059 0.202642
vn -0.780760 0.591059 0.202642
vn -0.780760 0.591059 0.202642
vn -0.780760 0.591059 0.202642
vn -0.625085 0.727669 -0.282431
vn -0.625085 0.727669 -0.282431
vn -0.625085 0.727669 -0.282431
vn -0.625085 0.727669 -0.282431
vn 0.849555 0.140927 0.508327
vn 0.849555 0.140927 0.508327
vn 0.849555 0.140927 0.508327
vn 0.849555 0.140927 0.508327
vn 0.777728 -0.457025 0.431587
vn 0.777728 -0.457025 0.431587
vn 0.777728 -0.457025 0.431587
vn 0.777728 -0.457025 0.431587
vn 0.904439 -0.083114 -0.418429
vn 0.904439 -0.083114 -0.418429
vn 0.904439 -0.083114 -0.418429
vn 0.904439 -0.083114 -0.418429
s off
g stone6
f 21/1/1 10/2/2 2/3/3 11/4/4
f 22/5/5 14/6/6 3/7/7 15/8/8
f 23/9/9 12/10/10 1/11/11 20/12/12
f 24/13/13 15/8/14 3/7/15 18/14/16
f 25/15/17 13/16/18 6/17/19 9/18/20
f 12/10/21 21/1/22 11/4/23 1/11/24
f 5/19/25 9/18/26 21/1/27 12/10/28
f 9/18/29 6/17/30 10/2/31 21/1/32
f 10/2/33 22/20/34 15/21/35 2/3/36
f 6/17/37 13/16/38 22/20/39 10/2/40
f 13/22/41 7/23/42 14/6/43 22/5/44
f 17/24/45 23/25/46 20/26/47 4/27/48
f 8/28/49 19/29/50 23/25/51 17/24/52
f 19/30/53 5/19/54 12/10/55 23/9/56
f 20/26/57 24/13/58 18/14/59 4/27/60
f 1/11/61 11/4/62 24/31/63 20/12/64
f 11/4/65 2/3/66 15/21/67 24/31/68
f 19/30/69 25/15/70 9/18/71 5/19/72
f 8/28/73 16/32/74 25/33/75 19/29/76
f 16/32/77 7/23/78 13/22/79 25/33/80
