# This file uses centimeters as units for non-parametric coordinates.

g default
v -2.500000 0.000000 1.580743
v -0.833333 0.000000 1.580743
v 0.833333 0.000000 1.580743
v 2.500000 0.000000 1.580743
v -2.500000 1.000000 1.580743
v -0.833333 1.000000 1.580743
v 0.833333 1.000000 1.580743
v 2.500000 1.000000 1.580743
v -2.500000 1.000000 0.000000
v -0.833333 1.000000 0.000000
v 0.833333 1.000000 0.000000
v 2.500000 1.000000 0.000000
v -2.500000 1.000000 -1.580743
v -0.833333 1.000000 -1.580743
v 0.833333 1.000000 -1.580743
v 2.500000 1.000000 -1.580743
v -2.500000 0.000000 -1.580743
v -0.833333 0.000000 -1.580743
v 0.833333 0.000000 -1.580743
v 2.500000 0.000000 -1.580743
v -2.500000 0.000000 0.000000
v -0.833333 0.000000 0.000000
v 0.833333 0.000000 0.000000
v 2.500000 0.000000 0.000000
v -0.651638 1.000000 1.408415
v 0.651638 1.000000 1.408415
v 0.651638 1.000000 0.172328
v -0.651638 1.000000 0.172328
v -2.318305 1.000000 -0.172328
v -1.015029 1.000000 -0.172328
v -1.015029 1.000000 -1.408415
v -2.318305 1.000000 -1.408415
v 1.015029 1.000000 -0.172328
v 2.318305 1.000000 -0.172328
v 2.318305 1.000000 -1.408415
v 1.015029 1.000000 -1.408415
v -2.318193 1.000000 1.408309
v -1.015140 1.000000 1.408309
v -1.015140 1.000000 0.172434
v -2.318193 1.000000 0.172434
v 1.015140 1.000000 1.408309
v 2.318193 1.000000 1.408309
v 2.318193 1.000000 0.172434
v 1.015140 1.000000 0.172434
v -0.651527 1.000000 -0.172434
v 0.651527 1.000000 -0.172434
v 0.651527 1.000000 -1.408309
v -0.651527 1.000000 -1.408309
v -2.318193 0.095513 1.408309
v -1.015140 0.095513 1.408309
v -1.015140 0.095513 0.172434
v -2.318193 0.095513 0.172434
v -0.651638 0.095513 1.408415
v 0.651638 0.095513 1.408415
v 0.651638 0.095513 0.172328
v -0.651638 0.095513 0.172328
v 1.015140 0.095513 1.408309
v 2.318193 0.095513 1.408309
v 2.318193 0.095513 0.172434
v 1.015140 0.095513 0.172434
v -2.318305 0.095513 -0.172328
v -1.015029 0.095513 -0.172328
v -1.015029 0.095513 -1.408415
v -2.318305 0.095513 -1.408415
v -0.651527 0.095513 -0.172434
v 0.651527 0.095513 -0.172434
v 0.651527 0.095513 -1.408309
v -0.651527 0.095513 -1.408309
v 1.015029 0.095513 -0.172328
v 2.318305 0.095513 -0.172328
v 2.318305 0.095513 -1.408415
v 1.015029 0.095513 -1.408415
vt 0.270537 0.442714
vt 0.298463 0.442714
vt 0.298463 0.442714
vt 0.270537 0.442714
vt 0.326389 0.442714
vt 0.326389 0.442714
vt 0.354315 0.442714
vt 0.354315 0.442714
vt 0.278441 0.341767
vt 0.297836 0.341767
vt 0.297836 0.372047
vt 0.278441 0.372047
vt 0.303247 0.341764
vt 0.322646 0.341764
vt 0.322646 0.372050
vt 0.303247 0.372050
vt 0.328057 0.341767
vt 0.347452 0.341767
vt 0.347452 0.372047
vt 0.328057 0.372047
vt 0.278439 0.380494
vt 0.297838 0.380494
vt 0.297838 0.410779
vt 0.278439 0.410779
vt 0.303249 0.380497
vt 0.322644 0.380497
vt 0.322644 0.410777
vt 0.303249 0.410777
vt 0.328055 0.380494
vt 0.347454 0.380494
vt 0.347454 0.410779
vt 0.328055 0.410779
vt 0.270537 0.526491
vt 0.298463 0.526491
vt 0.298463 0.526491
vt 0.270537 0.526491
vt 0.326389 0.526491
vt 0.326389 0.526491
vt 0.354315 0.526491
vt 0.354315 0.526491
vt 0.298463 0.484602
vt 0.270537 0.484602
vt 0.326389 0.484602
vt 0.354315 0.484602
vt 0.354315 0.484602
vt 0.270537 0.484602
vt 0.323344 0.447280
vt 0.301507 0.447280
vt 0.326389 0.484602
vt 0.323344 0.480036
vt 0.298463 0.484602
vt 0.301507 0.480036
vt 0.295419 0.489169
vt 0.273582 0.489169
vt 0.295419 0.521924
vt 0.273582 0.521924
vt 0.351270 0.489169
vt 0.329433 0.489169
vt 0.351270 0.521924
vt 0.329433 0.521924
vt 0.295417 0.447283
vt 0.273583 0.447283
vt 0.295417 0.480033
vt 0.273583 0.480033
vt 0.351268 0.447283
vt 0.329435 0.447283
vt 0.351268 0.480033
vt 0.329435 0.480033
vt 0.323343 0.489172
vt 0.301509 0.489172
vt 0.323343 0.521922
vt 0.301509 0.521922
vt 0.278441 0.341767
vt 0.297836 0.341767
vt 0.297836 0.372047
vt 0.278441 0.372047
vt 0.303247 0.341764
vt 0.322646 0.341764
vt 0.322646 0.372050
vt 0.303247 0.372050
vt 0.328057 0.341767
vt 0.347452 0.341767
vt 0.347452 0.372047
vt 0.328057 0.372047
vt 0.278439 0.380494
vt 0.297838 0.380494
vt 0.297838 0.410779
vt 0.278439 0.410779
vt 0.303249 0.380497
vt 0.322644 0.380497
vt 0.322644 0.410777
vt 0.303249 0.410777
vt 0.328055 0.380494
vt 0.347454 0.380494
vt 0.347454 0.410779
vt 0.328055 0.410779
vn 0.000000 0.000000 1.000000
vn 0.000000 0.000000 1.000000
vn 0.000000 0.000000 1.000000
vn 0.000000 0.000000 1.000000
vn 0.000000 0.000000 1.000000
vn 0.000000 0.000000 1.000000
vn 0.000000 0.000000 1.000000
vn 0.000000 0.000000 1.000000
vn 0.000000 1.000000 0.000000
vn 0.000000 1.000000 0.000000
vn 0.000000 1.000000 0.000000
vn 0.000000 1.000000 0.000000
vn 0.000000 1.000000 0.000000
vn 0.000000 1.000000 0.000000
vn 0.000000 1.000000 0.000000
vn 0.000000 1.000000 0.000000
vn 0.000000 1.000000 0.000000
vn 0.000000 1.000000 0.000000
vn 0.000000 1.000000 0.000000
vn 0.000000 1.000000 0.000000
vn 0.000000 1.000000 0.000000
vn 0.000000 1.000000 0.000000
vn 0.000000 1.000000 0.000000
vn 0.000000 1.000000 0.000000
vn 0.000000 1.000000 0.000000
vn 0.000000 1.000000 0.000000
vn 0.000000 1.000000 0.000000
vn 0.000000 1.000000 0.000000
vn 0.000000 1.000000 0.000000
vn 0.000000 1.000000 0.000000
vn 0.000000 1.000000 0.000000
vn 0.000000 1.000000 0.000000
vn 0.000000 0.000000 -1.000000
vn 0.000000 0.000000 -1.000000
vn 0.000000 0.000000 -1.000000
vn 0.000000 0.000000 -1.000000
vn 0.000000 0.000000 -1.000000
vn 0.000000 0.000000 -1.000000
vn 0.000000 0.000000 -1.000000
vn 0.000000 0.000000 -1.000000
vn 0.000000 -1.000000 0.000000
vn 0.000000 -1.000000 0.000000
vn 0.000000 -1.000000 0.000000
vn 0.000000 -1.000000 0.000000
vn 0.000000 -1.000000 0.000000
vn 0.000000 -1.000000 0.000000
vn 0.000000 -1.000000 0.000000
vn 0.000000 -1.000000 0.000000
vn 0.000000 -1.000000 0.000000
vn 0.000000 -1.000000 0.000000
vn 0.000000 -1.000000 0.000000
vn 0.000000 -1.000000 0.000000
vn 1.000000 0.000000 0.000000
vn 1.000000 0.000000 0.000000
vn 1.000000 0.000000 0.000000
vn 1.000000 0.000000 0.000000
vn 1.000000 0.000000 0.000000
vn 1.000000 0.000000 0.000000
vn -1.000000 0.000000 0.000000
vn -1.000000 0.000000 0.000000
vn -1.000000 0.000000 0.000000
vn -1.000000 0.000000 0.000000
vn -1.000000 0.000000 0.000000
vn -1.000000 0.000000 0.000000
vn 0.000000 1.000000 -0.000000
vn 0.000000 1.000000 0.000000
vn 0.000000 1.000000 -0.000000
vn 0.000000 1.000000 -0.000000
vn 0.000000 1.000000 -0.000000
vn 0.000000 1.000000 0.000000
vn 0.000000 1.000000 -0.000000
vn 0.000000 1.000000 0.000000
vn 0.000000 1.000000 0.000000
vn 0.000000 1.000000 0.000000
vn 0.000000 1.000000 0.000000
vn 0.000000 1.000000 0.000000
vn 0.000000 1.000000 0.000000
vn 0.000000 1.000000 0.000000
vn 0.000000 1.000000 0.000000
vn 0.000000 1.000000 -0.000000
vn 0.000000 1.000000 0.000000
vn 0.000000 1.000000 0.000000
vn 0.000000 1.000000 0.000000
vn 0.000000 1.000000 0.000000
vn 0.000000 1.000000 0.000000
vn 0.000000 1.000000 0.000000
vn 0.000000 1.000000 0.000000
vn 0.000000 1.000000 0.000000
vn 0.000000 1.000000 0.000000
vn 0.000000 1.000000 0.000000
vn 0.000000 1.000000 0.000000
vn 0.000000 1.000000 0.000000
vn 0.000000 1.000000 0.000000
vn 0.000000 1.000000 0.000000
vn 0.000000 1.000000 -0.000000
vn 0.000000 1.000000 -0.000000
vn 0.000000 1.000000 -0.000000
vn 0.000000 1.000000 -0.000000
vn 0.000000 1.000000 0.000000
vn 0.000000 1.000000 0.000000
vn 0.000000 0.000000 -1.000000
vn 0.000000 0.000000 -1.000000
vn 0.000000 0.000000 -1.000000
vn 0.000000 0.000000 -1.000000
vn -1.000000 0.000000 0.000000
vn -1.000000 0.000000 0.000000
vn -1.000000 0.000000 0.000000
vn -1.000000 0.000000 0.000000
vn 0.000000 0.000000 1.000000
vn 0.000000 0.000000 1.000000
vn 0.000000 0.000000 1.000000
vn 0.000000 0.000000 1.000000
vn 1.000000 0.000000 0.000000
vn 1.000000 0.000000 0.000000
vn 1.000000 0.000000 0.000000
vn 1.000000 0.000000 0.000000
vn 0.000000 0.000000 -1.000000
vn 0.000000 0.000000 -1.000000
vn 0.000000 0.000000 -1.000000
vn 0.000000 0.000000 -1.000000
vn -1.000000 0.000000 0.000000
vn -1.000000 0.000000 0.000000
vn -1.000000 0.000000 0.000000
vn -1.000000 0.000000 0.000000
vn 0.000000 0.000000 1.000000
vn 0.000000 0.000000 1.000000
vn 0.000000 0.000000 1.000000
vn 0.000000 0.000000 1.000000
vn 1.000000 0.000000 0.000000
vn 1.000000 0.000000 0.000000
vn 1.000000 0.000000 0.000000
vn 1.000000 0.000000 0.000000
vn 0.000000 0.000000 -1.000000
vn 0.000000 0.000000 -1.000000
vn 0.000000 0.000000 -1.000000
vn 0.000000 0.000000 -1.000000
vn -1.000000 0.000000 0.000000
vn -1.000000 0.000000 0.000000
vn -1.000000 0.000000 0.000000
vn -1.000000 0.000000 0.000000
vn 0.000000 0.000000 1.000000
vn 0.000000 0.000000 1.000000
vn 0.000000 0.000000 1.000000
vn 0.000000 0.000000 1.000000
vn 1.000000 0.000000 0.000000
vn 1.000000 0.000000 0.000000
vn 1.000000 0.000000 0.000000
vn 1.000000 0.000000 0.000000
vn 0.000000 0.000000 -1.000000
vn 0.000000 0.000000 -1.000000
vn 0.000000 0.000000 -1.000000
vn 0.000000 0.000000 -1.000000
vn -1.000000 0.000000 0.000000
vn -1.000000 0.000000 0.000000
vn -1.000000 0.000000 0.000000
vn -1.000000 0.000000 0.000000
vn 0.000000 0.000000 1.000000
vn 0.000000 0.000000 1.000000
vn 0.000000 0.000000 1.000000
vn 0.000000 0.000000 1.000000
vn 1.000000 0.000000 0.000000
vn 1.000000 0.000000 0.000000
vn 1.000000 0.000000 0.000000
vn 1.000000 0.000000 0.000000
vn 0.000000 0.000000 -1.000000
vn 0.000000 0.000000 -1.000000
vn 0.000000 0.000000 -1.000000
vn 0.000000 0.000000 -1.000000
vn -1.000000 0.000000 0.000000
vn -1.000000 0.000000 0.000000
vn -1.000000 0.000000 0.000000
vn -1.000000 0.000000 0.000000
vn 0.000000 0.000000 1.000000
vn 0.000000 0.000000 1.000000
vn 0.000000 0.000000 1.000000
vn 0.000000 0.000000 1.000000
vn 1.000000 0.000000 0.000000
vn 1.000000 0.000000 0.000000
vn 1.000000 0.000000 0.000000
vn 1.000000 0.000000 0.000000
vn 0.000000 0.000000 -1.000000
vn 0.000000 0.000000 -1.000000
vn 0.000000 0.000000 -1.000000
vn 0.000000 0.000000 -1.000000
vn -1.000000 0.000000 0.000000
vn -1.000000 0.000000 0.000000
vn -1.000000 0.000000 0.000000
vn -1.000000 0.000000 0.000000
vn 0.000000 0.000000 1.000000
vn 0.000000 0.000000 1.000000
vn 0.000000 0.000000 1.000000
vn 0.000000 0.000000 1.000000
vn 1.000000 0.000000 0.000000
vn 1.000000 0.000000 0.000000
vn 1.000000 0.000000 0.000000
vn 1.000000 0.000000 0.000000
s 1
g TestInevtoryCube
f 1/1/1 2/2/2 6/3/3 5/4/4
f 2/2/2 3/5/5 7/6/6 6/3/3
f 3/5/5 4/7/7 8/8/8 7/6/6
s off
f 49/9/9 50/10/10 51/11/11 52/12/12
f 53/13/13 54/14/14 55/15/15 56/16/16
f 57/17/17 58/18/18 59/19/19 60/20/20
f 61/21/21 62/22/22 63/23/23 64/24/24
f 65/25/25 66/26/26 67/27/27 68/28/28
f 69/29/29 70/30/30 71/31/31 72/32/32
s 2
f 13/33/33 14/34/34 18/35/35 17/36/36
f 14/34/34 15/37/37 19/38/38 18/35/35
f 15/37/37 16/39/39 20/40/40 19/38/38
s 3
f 17/36/41 18/35/42 22/41/43 21/42/44
f 18/35/42 19/38/45 23/43/46 22/41/43
f 19/38/45 20/40/47 24/44/48 23/43/46
f 21/42/44 22/41/43 2/2/49 1/1/50
f 22/41/43 23/43/46 3/5/51 2/2/49
f 23/43/46 24/44/48 4/7/52 3/5/51
s 4
f 24/44/53 20/40/54 16/39/55 12/45/56
f 4/7/57 24/44/53 12/45/56 8/8/58
s 5
f 17/36/59 21/42/60 9/46/61 13/33/62
f 21/42/60 1/1/63 5/4/64 9/46/61
s 6
f 6/3/65 7/6/66 26/47/67 25/48/68
f 7/6/66 11/49/69 27/50/70 26/47/67
f 11/49/69 10/51/71 28/52/72 27/50/70
f 10/51/71 6/3/65 25/48/68 28/52/72
f 9/46/73 10/51/71 30/53/74 29/54/75
f 10/51/71 14/34/76 31/55/77 30/53/74
f 14/34/76 13/33/78 32/56/79 31/55/77
f 13/33/78 9/46/73 29/54/75 32/56/79
f 11/49/69 12/45/80 34/57/81 33/58/82
f 12/45/80 16/39/83 35/59/84 34/57/81
f 16/39/83 15/37/85 36/60/86 35/59/84
f 15/37/85 11/49/69 33/58/82 36/60/86
f 5/4/87 6/3/65 38/61/88 37/62/89
f 6/3/65 10/51/71 39/63/90 38/61/88
f 10/51/71 9/46/73 40/64/91 39/63/90
f 9/46/73 5/4/87 37/62/89 40/64/91
f 7/6/66 8/8/92 42/65/93 41/66/94
f 8/8/92 12/45/80 43/67/95 42/65/93
f 12/45/80 11/49/69 44/68/96 43/67/95
f 11/49/69 7/6/66 41/66/94 44/68/96
f 10/51/71 11/49/69 46/69/97 45/70/98
f 11/49/69 15/37/85 47/71/99 46/69/97
f 15/37/85 14/34/76 48/72/100 47/71/99
f 14/34/76 10/51/71 45/70/98 48/72/100
s off
f 37/73/101 38/74/102 50/10/103 49/9/104
f 38/74/105 39/75/106 51/11/107 50/10/108
f 39/75/109 40/76/110 52/12/111 51/11/112
f 40/76/113 37/73/114 49/9/115 52/12/116
f 25/77/117 26/78/118 54/14/119 53/13/120
f 26/78/121 27/79/122 55/15/123 54/14/124
f 27/79/125 28/80/126 56/16/127 55/15/128
f 28/80/129 25/77/130 53/13/131 56/16/132
f 41/81/133 42/82/134 58/18/135 57/17/136
f 42/82/137 43/83/138 59/19/139 58/18/140
f 43/83/141 44/84/142 60/20/143 59/19/144
f 44/84/145 41/81/146 57/17/147 60/20/148
f 29/85/149 30/86/150 62/22/151 61/21/152
f 30/86/153 31/87/154 63/23/155 62/22/156
f 31/87/157 32/88/158 64/24/159 63/23/160
f 32/88/161 29/85/162 61/21/163 64/24/164
f 45/89/165 46/90/166 66/26/167 65/25/168
f 46/90/169 47/91/170 67/27/171 66/26/172
f 47/91/173 48/92/174 68/28/175 67/27/176
f 48/92/177 45/89/178 65/25/179 68/28/180
f 33/93/181 34/94/182 70/30/183 69/29/184
f 34/94/185 35/95/186 71/31/187 70/30/188
f 35/95/189 36/96/190 72/32/191 71/31/192
f 36/96/193 33/93/194 69/29/195 72/32/196
